<svg width="40" height="40" fill="none" xmlns="http://www.w3.org/2000/svg"><path d="M23.225 39.74zm.4-.069l-.24.042.24-.042zm-1.349.199zm.384-.047zm1.51-.26l-.212.045.211-.044zm1.35-.336c-.056.017-.113.032-.17.048l.17-.047zm-.408.113l-.186.048.186-.049zm-.535.133l-.197.044.197-.044zm-2.895.456z" fill="#fff"/><path d="M40 20C40 8.956 31.044 0 20 0S0 8.956 0 20s8.956 20 20 20c.117 0 .234-.002.352-.005V24.426h-4.297V19.42h4.297v-3.685c0-4.274 2.608-6.6 6.42-6.6 1.826 0 3.396.136 3.853.197v4.466h-2.629c-2.074 0-2.475.986-2.475 2.432v3.19h4.959l-.647 5.007h-4.312v14.801C33.88 36.831 40 29.13 40 20zM21.321 39.956zm-.637.031z" fill="#fff"/></svg>