<svg width="24" height="24" fill="none" xmlns="http://www.w3.org/2000/svg"><path fill-rule="evenodd" clip-rule="evenodd" d="M20 5L6 4c-.1 0-.3 0-.4.1-.3-.5-.6-1-.9-1.3C4.1 2.2 3.2 2 2 2v2c.8 0 1.2.1 1.3.2.4.4.7 1.2.7 1.8v.1L5 13c-1.6.1-2.9 1.4-3 2.9v1c.1 1.6 1.4 2.9 2.9 3h.2c.4 1.2 1.5 2 2.8 2 1.3 0 2.4-.8 2.8-2H13c.4 1.2 1.5 2 2.8 2 1.7 0 3-1.3 3-3s-1.3-3-3-3c-1.3 0-2.4.8-2.8 2h-2.3c-.4-1.2-1.5-2-2.8-2-1.3 0-2.4.8-2.8 2H5c-.5 0-1-.5-1-1.1V16c0-.5.5-1 1-1h12.2c.8-.2 1.4-.8 1.7-1.6l.4-.9c.4-.7.7-1.4 1.1-2.1.8-1.7 1.4-2.8 1.5-3C22.5 6.1 21.3 5 20 5zm-4 13c.6 0 1 .4 1 1s-.4 1-1 1-1-.4-1-1 .4-1 1-1zm-8 0c.6 0 1 .4 1 1s-.4 1-1 1-1-.4-1-1 .4-1 1-1zm10.6-8.5c-.3.7-.7 1.4-1.1 2.1l-.5.9v.1c-.1.1-.2.3-.3.3H7.1c-.1.1-.1 0-.1 0L6 6l13.9 1c-.2.5-.7 1.4-1.3 2.5z" fill="#fff"/></svg>