<svg width="30" height="30" fill="none" xmlns="http://www.w3.org/2000/svg"><path d="M29.5 15c0 8.008-6.492 14.5-14.5 14.5S.5 23.008.5 15 6.992.5 15 .5 29.5 6.992 29.5 15z" stroke="#97CBF2"/><path d="M17.934 8.636H16.29c-1.828 0-3.037 1.22-3.037 3.128v1.47h-1.642a.246.246 0 00-.248.25v2.095c0 .156.124.25.248.25h1.642v5.285c0 .156.124.25.248.25h2.138a.245.245 0 00.248-.25v-5.285h1.922a.246.246 0 00.248-.25v-2.096a.445.445 0 00-.062-.187c0-.063-.093-.063-.155-.063h-1.922v-1.25c0-.595.124-.876.9-.876h1.115a.246.246 0 00.248-.25v-1.94c0-.155-.124-.28-.248-.28z" fill="#97CBF2"/></svg>