<svg width="68" height="68" fill="none" xmlns="http://www.w3.org/2000/svg"><rect width="68" height="68" rx="10" fill="#97CBF2"/><path d="M52.006 31.344h-2.068a2.037 2.037 0 00-1.944-1.494h-2.207v-5.398a.57.57 0 00-.278-.503l-15.57-8.993a.575.575 0 00-.578 0l-15.575 8.993a.58.58 0 00-.289.503V42.44a.58.58 0 00.29.503l15.577 8.993a.58.58 0 00.29.078.61.61 0 00.3-.078l8.196-4.728v3.418a2.46 2.46 0 002.482 2.467h11.374a2.475 2.475 0 002.497-2.467V33.849a2.507 2.507 0 00-2.497-2.505zm-3.991-.332a.843.843 0 01.843.843v.056a.843.843 0 01-.843.844h-3.377a.843.843 0 01-.843-.844v-.056a.843.843 0 01.843-.843h3.377zM29.655 16.13l6.472 3.737-14.413 8.321-6.473-3.736 14.414-8.322zm-.553 34.295L14.66 42.103V25.457l14.443 8.322v16.646zm.553-17.652l-6.78-3.914 14.414-8.321 6.78 3.913-14.414 8.322zm8.495 1.076v12.016l-7.885 4.56V33.78l14.36-8.323v4.393h.018a2.037 2.037 0 00-1.944 1.494h-2.067a2.493 2.493 0 00-2.482 2.505zm15.19 16.776a1.31 1.31 0 01-1.334 1.305H40.632a1.297 1.297 0 01-1.32-1.305V33.849a1.33 1.33 0 011.32-1.343h2.09a1.987 1.987 0 001.921 1.411h3.351a1.988 1.988 0 001.921-1.411h2.09a1.343 1.343 0 011.336 1.343v16.776z" fill="url(#paint0_linear)"/><path d="M52.006 31.344h-2.068a2.037 2.037 0 00-1.944-1.494h-2.207v-5.398a.57.57 0 00-.278-.503l-15.57-8.993a.575.575 0 00-.578 0l-15.575 8.993a.58.58 0 00-.289.503V42.44a.58.58 0 00.29.503l15.577 8.993a.58.58 0 00.29.078.61.61 0 00.3-.078l8.196-4.728v3.418a2.46 2.46 0 002.482 2.467h11.374a2.475 2.475 0 002.497-2.467V33.849a2.507 2.507 0 00-2.497-2.505zm-3.991-.332a.843.843 0 01.843.843v.056a.843.843 0 01-.843.844h-3.377a.843.843 0 01-.843-.844v-.056a.843.843 0 01.843-.843h3.377zM29.655 16.13l6.472 3.737-14.413 8.321-6.473-3.736 14.414-8.322zm-.553 34.295L14.66 42.103V25.457l14.443 8.322v16.646zm.553-17.652l-6.78-3.914 14.414-8.321 6.78 3.913-14.414 8.322zm8.495 1.076v12.016l-7.885 4.56V33.78l14.36-8.323v4.393h.018a2.037 2.037 0 00-1.944 1.494h-2.067a2.493 2.493 0 00-2.482 2.505zm15.19 16.776a1.31 1.31 0 01-1.334 1.305H40.632a1.297 1.297 0 01-1.32-1.305V33.849a1.33 1.33 0 011.32-1.343h2.09a1.987 1.987 0 001.921 1.411h3.351a1.988 1.988 0 001.921-1.411h2.09a1.343 1.343 0 011.336 1.343v16.776z" fill="#fff"/><path d="M41.3 39.727h.609a.581.581 0 100-1.162h-.023v-1.577h1.602a.56.56 0 00.553.393.583.583 0 00.584-.58v-.391a.588.588 0 00-.587-.584H41.3a.58.58 0 00-.577.584v2.737a.58.58 0 00.577.58z" fill="url(#paint1_linear)"/><path d="M41.3 39.727h.609a.581.581 0 100-1.162h-.023v-1.577h1.602a.56.56 0 00.553.393.583.583 0 00.584-.58v-.391a.588.588 0 00-.587-.584H41.3a.58.58 0 00-.577.584v2.737a.58.58 0 00.577.58z" fill="#fff"/><path d="M41.305 45.04h2.739a.581.581 0 00.581-.581v-2.74a.58.58 0 00-.581-.58h-2.74a.581.581 0 00-.58.58v2.74a.581.581 0 00.58.581zm.58-2.74h1.578v1.578h-1.577V42.3z" fill="url(#paint2_linear)"/><path d="M41.305 45.04h2.739a.581.581 0 00.581-.581v-2.74a.58.58 0 00-.581-.58h-2.74a.581.581 0 00-.58.58v2.74a.581.581 0 00.58.581zm.58-2.74h1.578v1.578h-1.577V42.3z" fill="#fff"/><path d="M41.909 49.19h-.023v-1.577h1.571a.584.584 0 001.168.001v-.56a.606.606 0 00-.587-.603H41.3a.597.597 0 00-.576.604v2.737a.56.56 0 00.576.56h.609a.581.581 0 100-1.162z" fill="url(#paint3_linear)"/><path d="M41.909 49.19h-.023v-1.577h1.571a.584.584 0 001.168.001v-.56a.606.606 0 00-.587-.603H41.3a.597.597 0 00-.576.604v2.737a.56.56 0 00.576.56h.609a.581.581 0 100-1.162z" fill="#fff"/><path d="M45.376 36.54l-1.702 1.701-.518-.518a.581.581 0 00-.822.822l.929.929a.581.581 0 00.822 0l2.112-2.113a.581.581 0 10-.821-.822z" fill="url(#paint4_linear)"/><path d="M45.376 36.54l-1.702 1.701-.518-.518a.581.581 0 00-.822.822l.929.929a.581.581 0 00.822 0l2.112-2.113a.581.581 0 10-.821-.822z" fill="#fff"/><path d="M45.376 47.268l-1.702 1.702-.518-.518a.583.583 0 00-.992.41.581.581 0 00.17.412l.929.928a.58.58 0 00.822 0l2.112-2.112a.58.58 0 10-.821-.822z" fill="url(#paint5_linear)"/><path d="M45.376 47.268l-1.702 1.702-.518-.518a.583.583 0 00-.992.41.581.581 0 00.17.412l.929.928a.58.58 0 00.822 0l2.112-2.112a.58.58 0 10-.821-.822z" fill="#fff"/><path d="M51.337 37.237h-3.65a.581.581 0 100 1.162h3.65a.581.581 0 100-1.162z" fill="url(#paint6_linear)"/><path d="M51.337 37.237h-3.65a.581.581 0 100 1.162h3.65a.581.581 0 100-1.162z" fill="#fff"/><path d="M51.337 42.55h-3.65a.581.581 0 100 1.162h3.65a.581.581 0 100-1.162z" fill="url(#paint7_linear)"/><path d="M51.337 42.55h-3.65a.581.581 0 100 1.162h3.65a.581.581 0 100-1.162z" fill="#fff"/><path d="M51.337 47.862h-3.65a.581.581 0 100 1.162h3.65a.581.581 0 100-1.162z" fill="url(#paint8_linear)"/><path d="M51.337 47.862h-3.65a.581.581 0 100 1.162h3.65a.581.581 0 100-1.162z" fill="#fff"/><defs><linearGradient id="paint0_linear" x1="66.449" y1="-.895" x2="61.334" y2="81.287" gradientUnits="userSpaceOnUse"><stop offset=".06" stop-color="#6BE3DF"/><stop offset="1" stop-color="#FFB3EA"/></linearGradient><linearGradient id="paint1_linear" x1="45.762" y1="34.216" x2="45.202" y2="42.601" gradientUnits="userSpaceOnUse"><stop offset=".06" stop-color="#6BE3DF"/><stop offset="1" stop-color="#FFB3EA"/></linearGradient><linearGradient id="paint2_linear" x1="45.762" y1="39.528" x2="45.202" y2="47.914" gradientUnits="userSpaceOnUse"><stop offset=".06" stop-color="#6BE3DF"/><stop offset="1" stop-color="#FFB3EA"/></linearGradient><linearGradient id="paint3_linear" x1="45.762" y1="44.841" x2="45.202" y2="53.227" gradientUnits="userSpaceOnUse"><stop offset=".06" stop-color="#6BE3DF"/><stop offset="1" stop-color="#FFB3EA"/></linearGradient><linearGradient id="paint4_linear" x1="47.592" y1="35.017" x2="47.225" y2="42.068" gradientUnits="userSpaceOnUse"><stop offset=".06" stop-color="#6BE3DF"/><stop offset="1" stop-color="#FFB3EA"/></linearGradient><linearGradient id="paint5_linear" x1="47.592" y1="45.746" x2="47.225" y2="52.797" gradientUnits="userSpaceOnUse"><stop offset=".06" stop-color="#6BE3DF"/><stop offset="1" stop-color="#FFB3EA"/></linearGradient><linearGradient id="paint6_linear" x1="53.319" y1="36.758" x2="53.279" y2="39.266" gradientUnits="userSpaceOnUse"><stop offset=".06" stop-color="#6BE3DF"/><stop offset="1" stop-color="#FFB3EA"/></linearGradient><linearGradient id="paint7_linear" x1="53.319" y1="42.07" x2="53.279" y2="44.578" gradientUnits="userSpaceOnUse"><stop offset=".06" stop-color="#6BE3DF"/><stop offset="1" stop-color="#FFB3EA"/></linearGradient><linearGradient id="paint8_linear" x1="53.319" y1="47.383" x2="53.279" y2="49.891" gradientUnits="userSpaceOnUse"><stop offset=".06" stop-color="#6BE3DF"/><stop offset="1" stop-color="#FFB3EA"/></linearGradient></defs></svg>