<svg width="68" height="68" xmlns="http://www.w3.org/2000/svg"><path fill="none" d="M-1-1h802v602H-1z"/><rect fill="#97CBF2" rx="10" height="68" width="68"/><path d="M16.782 46.886c-3.183-1.072-4.24-4.256-4.28-6.91-.43-1.966 2.281-3.412 1.389-5.433-.34-2.988.726-5.948 2.317-8.58.05-1.692 1.686-2.349 3.467-2.253a83.627 83.627 0 0117.378-.051c3.437.541 6.176 2.542 9.083 4.054 1.803 1.136 3.907 1.885 5.72 2.977 1.96 1.398 3.8 2.957 5.157 4.811.488 1.854 1.143 3.697 1.479 5.563.681 1.746-.713 2.844-1.768 4.057-1.602 1.655-4.634 2.307-6.929 1.42-1.593-.495-2.18-2.594-3.997-2.449l-20.55-.26c-1.587 1.77-3.78 3.703-6.65 3.427a7.264 7.264 0 01-1.816-.373h0z" stroke-width="1.5" stroke="#fff" fill="#97cbf2"/></svg>