<svg width="68" height="68" fill="none" xmlns="http://www.w3.org/2000/svg"><rect width="68" height="68" rx="10" fill="#97CBF2"/><path d="M55.25 34.042c0-1.466-.31-2.635-.85-3.361a4.19 4.19 0 00.166-1.688c-.123-1.63-.922-3.821-2.168-4.711a3.476 3.476 0 00-.098-.886c-.373-1.625-2.031-4.034-3.701-4.552a2.957 2.957 0 00-.102-.31c-.706-1.772-3.294-3.654-5.036-3.654h-.085c-.88-1.328-3.282-2.276-4.952-2.276a3.372 3.372 0 00-1.194.182c-.982-.793-2.55-.886-3.23-.886-.68 0-2.248.093-3.23.886a3.38 3.38 0 00-1.194-.195c-1.67 0-4.072.93-4.951 2.276h-.085c-1.743 0-4.331 1.878-5.037 3.653a3.12 3.12 0 00-.102.31c-1.67.519-3.328 2.928-3.701 4.553-.071.29-.104.587-.098.885-1.241.886-2.045 3.1-2.168 4.712a4.195 4.195 0 00.166 1.7c-.54.731-.85 1.9-.85 3.362 0 1.461.31 2.635.85 3.365a4.19 4.19 0 00-.166 1.688c.123 1.625.923 3.803 2.168 4.69-.006.298.027.595.098.885.373 1.625 2.031 4.034 3.701 4.552.029.105.063.209.102.31.706 1.771 3.294 3.654 5.037 3.654h.085c.88 1.328 3.28 2.276 4.95 2.276.405.017.809-.038 1.195-.164.982.792 2.55.886 3.23.886.68 0 2.248-.093 3.23-.886a3.4 3.4 0 001.194.195c1.67 0 4.072-.93 4.952-2.276h.085c1.742 0 4.33-1.878 5.036-3.654.04-.101.073-.205.102-.31 1.67-.518 3.328-2.927 3.702-4.552.07-.29.103-.587.097-.886 1.241-.886 2.044-3.1 2.168-4.712a4.191 4.191 0 00-.166-1.687c.54-.74.85-1.908.85-3.374zm-4.373 8.963c1.776.943-2.074 6.465-3.485 4.995 1.41 1.47-3.889 5.482-4.794 3.631.91 1.851-5.321 3.96-5.623 1.895.31 2.05-6.239 2.05-5.929 0-.31 2.05-6.54-.057-5.635-1.908-.905 1.85-6.205-2.161-4.794-3.631-1.411 1.47-5.262-4.052-3.485-4.996-1.79.957-3.813-5.535-1.832-5.85-1.968.324-1.968-6.5 0-6.177-1.968-.323.055-6.815 1.832-5.872-1.777-.943 2.074-6.465 3.485-4.995-1.411-1.47 3.889-5.482 4.794-3.631-.918-1.865 5.312-3.973 5.614-1.909-.31-2.05 6.239-2.05 5.929 0 .31-2.05 6.54.058 5.635 1.909.906-1.851 6.205 2.16 4.794 3.63 1.411-1.47 5.262 4.053 3.485 4.996 1.79-.956 3.813 5.536 1.832 5.85 1.968-.323 1.968 6.5 0 6.177 1.98.337-.043 6.829-1.823 5.886z" fill="url(#paint0_linear)"/><path d="M55.25 34.042c0-1.466-.31-2.635-.85-3.361a4.19 4.19 0 00.166-1.688c-.123-1.63-.922-3.821-2.168-4.711a3.476 3.476 0 00-.098-.886c-.373-1.625-2.031-4.034-3.701-4.552a2.957 2.957 0 00-.102-.31c-.706-1.772-3.294-3.654-5.036-3.654h-.085c-.88-1.328-3.282-2.276-4.952-2.276a3.372 3.372 0 00-1.194.182c-.982-.793-2.55-.886-3.23-.886-.68 0-2.248.093-3.23.886a3.38 3.38 0 00-1.194-.195c-1.67 0-4.072.93-4.951 2.276h-.085c-1.743 0-4.331 1.878-5.037 3.653a3.12 3.12 0 00-.102.31c-1.67.519-3.328 2.928-3.701 4.553-.071.29-.104.587-.098.885-1.241.886-2.045 3.1-2.168 4.712a4.195 4.195 0 00.166 1.7c-.54.731-.85 1.9-.85 3.362 0 1.461.31 2.635.85 3.365a4.19 4.19 0 00-.166 1.688c.123 1.625.923 3.803 2.168 4.69-.006.298.027.595.098.885.373 1.625 2.031 4.034 3.701 4.552.029.105.063.209.102.31.706 1.771 3.294 3.654 5.037 3.654h.085c.88 1.328 3.28 2.276 4.95 2.276.405.017.809-.038 1.195-.164.982.792 2.55.886 3.23.886.68 0 2.248-.093 3.23-.886a3.4 3.4 0 001.194.195c1.67 0 4.072-.93 4.952-2.276h.085c1.742 0 4.33-1.878 5.036-3.654.04-.101.073-.205.102-.31 1.67-.518 3.328-2.927 3.702-4.552.07-.29.103-.587.097-.886 1.241-.886 2.044-3.1 2.168-4.712a4.191 4.191 0 00-.166-1.687c.54-.74.85-1.908.85-3.374zm-4.373 8.963c1.776.943-2.074 6.465-3.485 4.995 1.41 1.47-3.889 5.482-4.794 3.631.91 1.851-5.321 3.96-5.623 1.895.31 2.05-6.239 2.05-5.929 0-.31 2.05-6.54-.057-5.635-1.908-.905 1.85-6.205-2.161-4.794-3.631-1.411 1.47-5.262-4.052-3.485-4.996-1.79.957-3.813-5.535-1.832-5.85-1.968.324-1.968-6.5 0-6.177-1.968-.323.055-6.815 1.832-5.872-1.777-.943 2.074-6.465 3.485-4.995-1.411-1.47 3.889-5.482 4.794-3.631-.918-1.865 5.312-3.973 5.614-1.909-.31-2.05 6.239-2.05 5.929 0 .31-2.05 6.54.058 5.635 1.909.906-1.851 6.205 2.16 4.794 3.63 1.411-1.47 5.262 4.053 3.485 4.996 1.79-.956 3.813 5.536 1.832 5.85 1.968-.323 1.968 6.5 0 6.177 1.98.337-.043 6.829-1.823 5.886z" fill="#fff"/><path d="M34 16.328a16.52 16.52 0 00-9.445 2.986c-2.795 1.946-4.974 4.712-6.26 7.95a18.405 18.405 0 00-.968 10.234c.656 3.436 2.275 6.592 4.652 9.069 2.378 2.477 5.407 4.164 8.704 4.848a16.37 16.37 0 009.823-1.008c3.106-1.34 5.761-3.611 7.629-6.524A18.247 18.247 0 0051 34.042c0-4.698-1.791-9.204-4.98-12.526-3.187-3.321-7.511-5.188-12.02-5.188zm0 34.32c-3.152 0-6.233-.974-8.854-2.799-2.621-1.824-4.664-4.418-5.87-7.452a17.255 17.255 0 01-.907-9.595c.615-3.221 2.133-6.18 4.361-8.503 2.23-2.322 5.07-3.904 8.16-4.544a15.342 15.342 0 019.209.945c2.912 1.256 5.401 3.385 7.153 6.116a17.105 17.105 0 012.685 9.226c-.004 4.403-1.685 8.624-4.672 11.737-2.988 3.113-7.04 4.864-11.265 4.869z" fill="url(#paint1_linear)"/><path d="M34 16.328a16.52 16.52 0 00-9.445 2.986c-2.795 1.946-4.974 4.712-6.26 7.95a18.405 18.405 0 00-.968 10.234c.656 3.436 2.275 6.592 4.652 9.069 2.378 2.477 5.407 4.164 8.704 4.848a16.37 16.37 0 009.823-1.008c3.106-1.34 5.761-3.611 7.629-6.524A18.247 18.247 0 0051 34.042c0-4.698-1.791-9.204-4.98-12.526-3.187-3.321-7.511-5.188-12.02-5.188zm0 34.32c-3.152 0-6.233-.974-8.854-2.799-2.621-1.824-4.664-4.418-5.87-7.452a17.255 17.255 0 01-.907-9.595c.615-3.221 2.133-6.18 4.361-8.503 2.23-2.322 5.07-3.904 8.16-4.544a15.342 15.342 0 019.209.945c2.912 1.256 5.401 3.385 7.153 6.116a17.105 17.105 0 012.685 9.226c-.004 4.403-1.685 8.624-4.672 11.737-2.988 3.113-7.04 4.864-11.265 4.869z" fill="#fff"/><path d="M41.49 25.462L25.764 41.848l.742.773 15.727-16.386-.743-.773z" fill="url(#paint2_linear)"/><path d="M41.49 25.462L25.764 41.848l.742.773 15.727-16.386-.743-.773z" fill="#fff"/><path d="M41.438 34.042a3.09 3.09 0 00-1.771.56 3.295 3.295 0 00-1.174 1.49 3.452 3.452 0 00-.182 1.919c.123.644.427 1.236.873 1.7a3.15 3.15 0 001.632.91 3.07 3.07 0 001.841-.19 3.22 3.22 0 001.43-1.223 3.42 3.42 0 00.538-1.845 3.398 3.398 0 00-.935-2.347 3.129 3.129 0 00-2.252-.974zm0 5.535c-.42 0-.832-.13-1.181-.373a2.197 2.197 0 01-.783-.994 2.3 2.3 0 01-.12-1.279c.081-.43.284-.824.58-1.134a2.1 2.1 0 011.089-.606c.412-.085.84-.041 1.228.126.388.168.72.452.953.816.234.364.358.792.358 1.23 0 .587-.223 1.15-.622 1.566a2.083 2.083 0 01-1.502.648z" fill="url(#paint3_linear)"/><path d="M41.438 34.042a3.09 3.09 0 00-1.771.56 3.295 3.295 0 00-1.174 1.49 3.452 3.452 0 00-.182 1.919c.123.644.427 1.236.873 1.7a3.15 3.15 0 001.632.91 3.07 3.07 0 001.841-.19 3.22 3.22 0 001.43-1.223 3.42 3.42 0 00.538-1.845 3.398 3.398 0 00-.935-2.347 3.129 3.129 0 00-2.252-.974zm0 5.535c-.42 0-.832-.13-1.181-.373a2.197 2.197 0 01-.783-.994 2.3 2.3 0 01-.12-1.279c.081-.43.284-.824.58-1.134a2.1 2.1 0 011.089-.606c.412-.085.84-.041 1.228.126.388.168.72.452.953.816.234.364.358.792.358 1.23 0 .587-.223 1.15-.622 1.566a2.083 2.083 0 01-1.502.648z" fill="#fff"/><path d="M28.688 31.828c.63 0 1.246-.195 1.77-.56a3.295 3.295 0 001.174-1.49 3.452 3.452 0 00.182-1.92 3.367 3.367 0 00-.873-1.7 3.15 3.15 0 00-1.632-.91 3.068 3.068 0 00-1.841.19 3.219 3.219 0 00-1.43 1.223 3.42 3.42 0 00-.538 1.845c.001.88.337 1.725.935 2.347a3.129 3.129 0 002.253.974zm0-5.536c.42 0 .83.13 1.18.373.35.244.622.59.783.994.16.405.203.85.12 1.28a2.245 2.245 0 01-.58 1.133 2.1 2.1 0 01-1.089.606c-.412.085-.84.041-1.228-.126a2.145 2.145 0 01-.953-.816 2.28 2.28 0 01-.358-1.23c0-.587.223-1.15.622-1.566a2.083 2.083 0 011.503-.648z" fill="url(#paint4_linear)"/><path d="M28.688 31.828c.63 0 1.246-.195 1.77-.56a3.295 3.295 0 001.174-1.49 3.452 3.452 0 00.182-1.92 3.367 3.367 0 00-.873-1.7 3.15 3.15 0 00-1.632-.91 3.068 3.068 0 00-1.841.19 3.219 3.219 0 00-1.43 1.223 3.42 3.42 0 00-.538 1.845c.001.88.337 1.725.935 2.347a3.129 3.129 0 002.253.974zm0-5.536c.42 0 .83.13 1.18.373.35.244.622.59.783.994.16.405.203.85.12 1.28a2.245 2.245 0 01-.58 1.133 2.1 2.1 0 01-1.089.606c-.412.085-.84.041-1.228-.126a2.145 2.145 0 01-.953-.816 2.28 2.28 0 01-.358-1.23c0-.587.223-1.15.622-1.566a2.083 2.083 0 011.503-.648z" fill="#fff"/><defs><linearGradient id="paint0_linear" x1="67.631" y1="-6.378" x2="61.01" y2="88.765" gradientUnits="userSpaceOnUse"><stop offset=".06" stop-color="#6BE3DF"/><stop offset="1" stop-color="#FFB3EA"/></linearGradient><linearGradient id="paint1_linear" x1="60.905" y1="1.706" x2="55.608" y2="77.82" gradientUnits="userSpaceOnUse"><stop offset=".06" stop-color="#6BE3DF"/><stop offset="1" stop-color="#FFB3EA"/></linearGradient><linearGradient id="paint2_linear" x1="45.765" y1="20.369" x2="47.429" y2="21.976" gradientUnits="userSpaceOnUse"><stop offset=".06" stop-color="#6BE3DF"/><stop offset="1" stop-color="#FFB3EA"/></linearGradient><linearGradient id="paint3_linear" x1="46.482" y1="31.3" x2="45.489" y2="45.572" gradientUnits="userSpaceOnUse"><stop offset=".06" stop-color="#6BE3DF"/><stop offset="1" stop-color="#FFB3EA"/></linearGradient><linearGradient id="paint4_linear" x1="33.732" y1="22.443" x2="32.739" y2="36.715" gradientUnits="userSpaceOnUse"><stop offset=".06" stop-color="#6BE3DF"/><stop offset="1" stop-color="#FFB3EA"/></linearGradient></defs></svg>