<svg width="68" height="68" fill="none" xmlns="http://www.w3.org/2000/svg"><rect width="68" height="68" rx="10" fill="#97CBF2"/><path d="M54.463 34.986h-4.25l-1.306-12.58a5.361 5.361 0 00-.693-2.047 5.134 5.134 0 00-1.432-1.577 4.84 4.84 0 00-1.918-.843 4.749 4.749 0 00-2.08.055l-4.33 1.1c-2.929.721-5.98.721-8.909 0l-4.328-1.1a4.824 4.824 0 00-2.084-.044 4.916 4.916 0 00-1.922.841 5.15 5.15 0 00-1.429 1.582 5.378 5.378 0 00-.689 2.05l-1.306 12.563h-4.25a.771.771 0 00-.557.24.838.838 0 00-.23.58.84.84 0 00.23.58c.148.154.348.24.557.24h40.926a.771.771 0 00.556-.24.837.837 0 00.231-.58.838.838 0 00-.23-.58.771.771 0 00-.557-.24zm-34.63-4.56h22.352a.771.771 0 00.557-.24.838.838 0 00.23-.58.838.838 0 00-.23-.58.771.771 0 00-.557-.24H20.022l.63-6.232c.062-.5.224-.98.476-1.41.252-.429.589-.798.988-1.083.394-.286.842-.48 1.315-.571.472-.09.958-.075 1.424.046l4.328 1.083a19.95 19.95 0 009.634 0l4.328-1.083a3.237 3.237 0 011.424-.046c.473.09.921.285 1.315.571.399.285.736.654.988 1.084.252.43.414.91.476 1.409l1.29 12.383H19.362l.472-4.51zm28.145 8.808H20.006a.771.771 0 00-.556.24.838.838 0 00-.23.58v5.462a4.81 4.81 0 001.317 3.323 4.428 4.428 0 003.184 1.384h4.172c1.2 0 2.35-.495 3.2-1.378a4.825 4.825 0 001.333-3.33v-.82h3.148v.82a4.825 4.825 0 001.328 3.325 4.443 4.443 0 003.19 1.383h4.171a4.427 4.427 0 003.194-1.379 4.81 4.81 0 001.324-3.328v-5.462a.838.838 0 00-.231-.58.771.771 0 00-.556-.24h-.016zm-17.126 6.282c0 .813-.31 1.593-.862 2.169a2.886 2.886 0 01-2.082.898h-4.187a2.886 2.886 0 01-2.07-.904 3.134 3.134 0 01-.857-2.163v-4.642h10.058v4.642zm1.574-2.46v-2.182h3.148v2.182h-3.148zm14.796 2.46c0 .81-.308 1.588-.856 2.163-.549.575-1.294.9-2.072.904h-4.187a2.841 2.841 0 01-1.13-.229 2.937 2.937 0 01-.961-.664 3.078 3.078 0 01-.642-.997 3.18 3.18 0 01-.226-1.177v-4.642h10.043l.031 4.642z" fill="url(#paint0_linear)"/><path d="M54.463 34.986h-4.25l-1.306-12.58a5.361 5.361 0 00-.693-2.047 5.134 5.134 0 00-1.432-1.577 4.84 4.84 0 00-1.918-.843 4.749 4.749 0 00-2.08.055l-4.33 1.1c-2.929.721-5.98.721-8.909 0l-4.328-1.1a4.824 4.824 0 00-2.084-.044 4.916 4.916 0 00-1.922.841 5.15 5.15 0 00-1.429 1.582 5.378 5.378 0 00-.689 2.05l-1.306 12.563h-4.25a.771.771 0 00-.557.24.838.838 0 00-.23.58.84.84 0 00.23.58c.148.154.348.24.557.24h40.926a.771.771 0 00.556-.24.837.837 0 00.231-.58.838.838 0 00-.23-.58.771.771 0 00-.557-.24zm-34.63-4.56h22.352a.771.771 0 00.557-.24.838.838 0 00.23-.58.838.838 0 00-.23-.58.771.771 0 00-.557-.24H20.022l.63-6.232c.062-.5.224-.98.476-1.41.252-.429.589-.798.988-1.083.394-.286.842-.48 1.315-.571.472-.09.958-.075 1.424.046l4.328 1.083a19.95 19.95 0 009.634 0l4.328-1.083a3.237 3.237 0 011.424-.046c.473.09.921.285 1.315.571.399.285.736.654.988 1.084.252.43.414.91.476 1.409l1.29 12.383H19.362l.472-4.51zm28.145 8.808H20.006a.771.771 0 00-.556.24.838.838 0 00-.23.58v5.462a4.81 4.81 0 001.317 3.323 4.428 4.428 0 003.184 1.384h4.172c1.2 0 2.35-.495 3.2-1.378a4.825 4.825 0 001.333-3.33v-.82h3.148v.82a4.825 4.825 0 001.328 3.325 4.443 4.443 0 003.19 1.383h4.171a4.427 4.427 0 003.194-1.379 4.81 4.81 0 001.324-3.328v-5.462a.838.838 0 00-.231-.58.771.771 0 00-.556-.24h-.016zm-17.126 6.282c0 .813-.31 1.593-.862 2.169a2.886 2.886 0 01-2.082.898h-4.187a2.886 2.886 0 01-2.07-.904 3.134 3.134 0 01-.857-2.163v-4.642h10.058v4.642zm1.574-2.46v-2.182h3.148v2.182h-3.148zm14.796 2.46c0 .81-.308 1.588-.856 2.163-.549.575-1.294.9-2.072.904h-4.187a2.841 2.841 0 01-1.13-.229 2.937 2.937 0 01-.961-.664 3.078 3.078 0 01-.642-.997 3.18 3.18 0 01-.226-1.177v-4.642h10.043l.031 4.642z" fill="#fff"/><defs><linearGradient id="paint0_linear" x1="67.631" y1="4.488" x2="64.085" y2="74.198" gradientUnits="userSpaceOnUse"><stop offset=".06" stop-color="#6BE3DF"/><stop offset="1" stop-color="#FFB3EA"/></linearGradient></defs></svg>