<svg width="68" height="68" fill="none" xmlns="http://www.w3.org/2000/svg"><rect width="68" height="68" rx="10" fill="#97CBF2"/><path d="M23.928 42.314c-.085 0-.128 0-.213-.044l-5.865-3.543c-.128-.089-.213-.222-.213-.354 0-.133.085-.31.213-.355l3.23-1.904c.213-.133.425-.044.553.177.127.222.042.443-.17.576l-2.635 1.55 5.057 3.055 1.573-.93c.212-.132.425-.044.552.133.128.222.043.443-.127.576L24.14 42.27c-.042.044-.127.044-.212.044z" fill="url(#paint0_linear)"/><path d="M23.928 42.314c-.085 0-.128 0-.213-.044l-5.865-3.543c-.128-.089-.213-.222-.213-.354 0-.133.085-.31.213-.355l3.23-1.904c.213-.133.425-.044.553.177.127.222.042.443-.17.576l-2.635 1.55 5.057 3.055 1.573-.93c.212-.132.425-.044.552.133.128.222.043.443-.127.576L24.14 42.27c-.042.044-.127.044-.212.044z" fill="#fff"/><path d="M23.928 49.355c-.085 0-.128 0-.213-.044l-5.865-3.543c-.128-.089-.213-.221-.213-.354v-7.042a.39.39 0 01.383-.398.39.39 0 01.383.398v6.82l5.652 3.41c.213.133.255.355.128.576.042.133-.085.177-.255.177z" fill="url(#paint1_linear)"/><path d="M23.928 49.355c-.085 0-.128 0-.213-.044l-5.865-3.543c-.128-.089-.213-.221-.213-.354v-7.042a.39.39 0 01.383-.398.39.39 0 01.383.398v6.82l5.652 3.41c.213.133.255.355.128.576.042.133-.085.177-.255.177z" fill="#fff"/><path d="M23.927 49.355c-.127 0-.255-.088-.34-.221-.127-.222-.042-.443.128-.576l5.865-3.543c.213-.133.425-.044.553.133.127.221.042.443-.128.576l-5.865 3.543c-.043.088-.128.088-.213.088z" fill="url(#paint2_linear)"/><path d="M23.927 49.355c-.127 0-.255-.088-.34-.221-.127-.222-.042-.443.128-.576l5.865-3.543c.213-.133.425-.044.553.133.127.221.042.443-.128.576l-5.865 3.543c-.043.088-.128.088-.213.088z" fill="#fff"/><path d="M23.928 47.008a.39.39 0 01-.382-.399v-4.738a.39.39 0 01.383-.399.39.39 0 01.382.399v4.694c.043.266-.128.443-.383.443z" fill="url(#paint3_linear)"/><path d="M23.928 47.008a.39.39 0 01-.382-.399v-4.738a.39.39 0 01.383-.399.39.39 0 01.382.399v4.694c.043.266-.128.443-.383.443z" fill="#fff"/><path d="M37.996 47.185a.45.45 0 01-.297-.133c-.51-.487-1.148-.797-1.87-.797-.723 0-1.36.266-1.87.797-.17.178-.425.178-.553 0L19.083 32.128c-.17-.177-.17-.442 0-.575l9.606-10.009c.17-.177.424-.177.552 0l14.323 14.924c.17.177.17.443 0 .576-.51.531-.765 1.196-.765 1.949 0 .708.255 1.417.765 1.948.17.177.17.443 0 .576l-2.295 2.391c-.17.177-.425.177-.552 0-.17-.177-.17-.443 0-.576l2.04-2.125c-.978-1.285-.978-3.145 0-4.429L28.986 22.386l-9.053 9.432 13.813 14.393a3.38 3.38 0 014.25 0l1.063-1.107c.17-.177.425-.177.552 0 .17.177.17.443 0 .575l-1.36 1.373c-.085.089-.17.133-.255.133z" fill="url(#paint4_linear)"/><path d="M37.996 47.185a.45.45 0 01-.297-.133c-.51-.487-1.148-.797-1.87-.797-.723 0-1.36.266-1.87.797-.17.178-.425.178-.553 0L19.083 32.128c-.17-.177-.17-.442 0-.575l9.606-10.009c.17-.177.424-.177.552 0l14.323 14.924c.17.177.17.443 0 .576-.51.531-.765 1.196-.765 1.949 0 .708.255 1.417.765 1.948.17.177.17.443 0 .576l-2.295 2.391c-.17.177-.425.177-.552 0-.17-.177-.17-.443 0-.576l2.04-2.125c-.978-1.285-.978-3.145 0-4.429L28.986 22.386l-9.053 9.432 13.813 14.393a3.38 3.38 0 014.25 0l1.063-1.107c.17-.177.425-.177.552 0 .17.177.17.443 0 .575l-1.36 1.373c-.085.089-.17.133-.255.133z" fill="#fff"/><path d="M37.19 42.801c-.043 0-.086 0-.128-.044a1.913 1.913 0 01-.723-.487 2.037 2.037 0 010-2.835c.765-.797 1.955-.797 2.72 0 .425.443.638 1.107.553 1.727-.043.222-.255.399-.468.355-.212-.045-.382-.266-.34-.487.043-.355-.042-.753-.297-1.019a1.097 1.097 0 00-1.573 0 1.212 1.212 0 000 1.639.876.876 0 00.425.265c.213.089.34.31.255.532-.127.221-.297.354-.425.354z" fill="url(#paint5_linear)"/><path d="M37.19 42.801c-.043 0-.086 0-.128-.044a1.913 1.913 0 01-.723-.487 2.037 2.037 0 010-2.835c.765-.797 1.955-.797 2.72 0 .425.443.638 1.107.553 1.727-.043.222-.255.399-.468.355-.212-.045-.382-.266-.34-.487.043-.355-.042-.753-.297-1.019a1.097 1.097 0 00-1.573 0 1.212 1.212 0 000 1.639.876.876 0 00.425.265c.213.089.34.31.255.532-.127.221-.297.354-.425.354z" fill="#fff"/><path d="M28.39 36.867c-.085 0-.127 0-.212-.045-.213-.132-.255-.354-.17-.575l3.443-6.51c.127-.221.34-.266.552-.177.212.133.255.354.17.575l-3.443 6.51c-.042.133-.17.222-.34.222z" fill="url(#paint6_linear)"/><path d="M28.39 36.867c-.085 0-.127 0-.212-.045-.213-.132-.255-.354-.17-.575l3.443-6.51c.127-.221.34-.266.552-.177.212.133.255.354.17.575l-3.443 6.51c-.042.133-.17.222-.34.222z" fill="#fff"/><path d="M32.513 36.867c-.85 0-1.53-.709-1.53-1.594v-.798c0-.885.68-1.594 1.53-1.594s1.53.709 1.53 1.594v.797c0 .886-.68 1.595-1.53 1.595zm0-3.145c-.382 0-.722.355-.722.753v.797c0 .4.34.753.722.753.383 0 .723-.354.723-.752v-.798c0-.398-.34-.753-.723-.753z" fill="url(#paint7_linear)"/><path d="M32.513 36.867c-.85 0-1.53-.709-1.53-1.594v-.798c0-.885.68-1.594 1.53-1.594s1.53.709 1.53 1.594v.797c0 .886-.68 1.595-1.53 1.595zm0-3.145c-.382 0-.722.355-.722.753v.797c0 .4.34.753.722.753.383 0 .723-.354.723-.752v-.798c0-.398-.34-.753-.723-.753z" fill="#fff"/><path d="M27.838 33.457c-.85 0-1.53-.709-1.53-1.595v-.797c0-.885.68-1.594 1.53-1.594s1.53.709 1.53 1.594v.797c-.042.886-.722 1.595-1.53 1.595zm0-3.1c-.382 0-.722.354-.722.753v.797c0 .398.34.753.723.753.382 0 .722-.355.722-.753v-.797a.731.731 0 00-.723-.753z" fill="url(#paint8_linear)"/><path d="M27.838 33.457c-.85 0-1.53-.709-1.53-1.595v-.797c0-.885.68-1.594 1.53-1.594s1.53.709 1.53 1.594v.797c-.042.886-.722 1.595-1.53 1.595zm0-3.1c-.382 0-.722.354-.722.753v.797c0 .398.34.753.723.753.382 0 .722-.355.722-.753v-.797a.731.731 0 00-.723-.753z" fill="#fff"/><path d="M51.172 45.236a.39.39 0 01-.383-.398c0-.221.17-.443.383-.443 1.317-.044 2.635-.93 3.315-2.303.085-.221.34-.265.552-.177.213.089.255.355.17.576-.807 1.594-2.38 2.701-4.037 2.745z" fill="url(#paint9_linear)"/><path d="M51.172 45.236a.39.39 0 01-.383-.398c0-.221.17-.443.383-.443 1.317-.044 2.635-.93 3.315-2.303.085-.221.34-.265.552-.177.213.089.255.355.17.576-.807 1.594-2.38 2.701-4.037 2.745z" fill="#fff"/><path d="M46.198 48.204c-1.275 0-2.593-.399-3.783-1.107-2.805-1.727-5.015-5.846-5.1-6.023-.085-.222-.043-.443.17-.576.212-.088.425-.044.552.177.043.044 2.168 4.119 4.76 5.669 1.36.841 2.89 1.151 4.336.93 1.53-.266 2.847-1.152 3.57-2.436.765-1.328.807-3.056.127-4.296-.382-.664-.935-1.151-1.53-1.328-.637-.177-1.36 0-1.7.487-.467.62-.297 1.594-.042 2.214.467 1.019 1.36 1.86 2.465 2.215.212.088.34.31.255.53-.085.222-.298.355-.51.267-1.318-.399-2.423-1.417-2.975-2.657-.383-.886-.553-2.126.127-3.056.553-.753 1.615-1.063 2.55-.797.808.221 1.53.885 1.998 1.727.85 1.55.807 3.543-.128 5.181-.85 1.462-2.422 2.524-4.165 2.834-.297 0-.637.045-.977.045z" fill="url(#paint10_linear)"/><path d="M46.198 48.204c-1.275 0-2.593-.399-3.783-1.107-2.805-1.727-5.015-5.846-5.1-6.023-.085-.222-.043-.443.17-.576.212-.088.425-.044.552.177.043.044 2.168 4.119 4.76 5.669 1.36.841 2.89 1.151 4.336.93 1.53-.266 2.847-1.152 3.57-2.436.765-1.328.807-3.056.127-4.296-.382-.664-.935-1.151-1.53-1.328-.637-.177-1.36 0-1.7.487-.467.62-.297 1.594-.042 2.214.467 1.019 1.36 1.86 2.465 2.215.212.088.34.31.255.53-.085.222-.298.355-.51.267-1.318-.399-2.423-1.417-2.975-2.657-.383-.886-.553-2.126.127-3.056.553-.753 1.615-1.063 2.55-.797.808.221 1.53.885 1.998 1.727.85 1.55.807 3.543-.128 5.181-.85 1.462-2.422 2.524-4.165 2.834-.297 0-.637.045-.977.045z" fill="#fff"/><path d="M31.196 52.41H15.98c-1.785 0-3.23-1.505-3.23-3.365V18.577c0-1.816 1.402-3.277 3.145-3.277h15.003c1.743 0 3.145 1.462 3.145 3.277v5.093a.39.39 0 01-.382.398.39.39 0 01-.383-.398v-5.093c0-1.373-1.062-2.436-2.337-2.436H15.895c-1.317 0-2.338 1.108-2.338 2.436v30.424c0 1.417 1.106 2.524 2.423 2.524h15.173c1.148 0 2.04-.974 2.04-2.125v-1.063a.39.39 0 01.383-.399.39.39 0 01.382.399V49.4c.085 1.682-1.19 3.01-2.762 3.01z" fill="url(#paint11_linear)"/><path d="M31.196 52.41H15.98c-1.785 0-3.23-1.505-3.23-3.365V18.577c0-1.816 1.402-3.277 3.145-3.277h15.003c1.743 0 3.145 1.462 3.145 3.277v5.093a.39.39 0 01-.382.398.39.39 0 01-.383-.398v-5.093c0-1.373-1.062-2.436-2.337-2.436H15.895c-1.317 0-2.338 1.108-2.338 2.436v30.424c0 1.417 1.106 2.524 2.423 2.524h15.173c1.148 0 2.04-.974 2.04-2.125v-1.063a.39.39 0 01.383-.399.39.39 0 01.382.399V49.4c.085 1.682-1.19 3.01-2.762 3.01z" fill="#fff"/><path d="M26.732 19.109h-6.63c-1.063 0-1.87-.886-1.87-1.949v-1.461a.39.39 0 01.382-.399.39.39 0 01.383.399v1.417c0 .62.467 1.151 1.105 1.151h6.63c.595 0 1.105-.487 1.105-1.151v-1.417a.39.39 0 01.383-.399.39.39 0 01.382.399v1.417c0 1.107-.85 1.993-1.87 1.993z" fill="url(#paint12_linear)"/><path d="M26.732 19.109h-6.63c-1.063 0-1.87-.886-1.87-1.949v-1.461a.39.39 0 01.382-.399.39.39 0 01.383.399v1.417c0 .62.467 1.151 1.105 1.151h6.63c.595 0 1.105-.487 1.105-1.151v-1.417a.39.39 0 01.383-.399.39.39 0 01.382.399v1.417c0 1.107-.85 1.993-1.87 1.993z" fill="#fff"/><defs><linearGradient id="paint0_linear" x1="28.529" y1="33.467" x2="27.86" y2="46.953" gradientUnits="userSpaceOnUse"><stop offset=".06" stop-color="#6BE3DF"/><stop offset="1" stop-color="#FFB3EA"/></linearGradient><linearGradient id="paint1_linear" x1="26.182" y1="33.276" x2="23.396" y2="57.527" gradientUnits="userSpaceOnUse"><stop offset=".06" stop-color="#6BE3DF"/><stop offset="1" stop-color="#FFB3EA"/></linearGradient><linearGradient id="paint2_linear" x1="32.137" y1="43.133" x2="31.718" y2="52.623" gradientUnits="userSpaceOnUse"><stop offset=".06" stop-color="#6BE3DF"/><stop offset="1" stop-color="#FFB3EA"/></linearGradient><linearGradient id="paint3_linear" x1="24.542" y1="39.188" x2="19.885" y2="48.907" gradientUnits="userSpaceOnUse"><stop offset=".06" stop-color="#6BE3DF"/><stop offset="1" stop-color="#FFB3EA"/></linearGradient><linearGradient id="paint4_linear" x1="50.898" y1="10.773" x2="47.044" y2="66.148" gradientUnits="userSpaceOnUse"><stop offset=".06" stop-color="#6BE3DF"/><stop offset="1" stop-color="#FFB3EA"/></linearGradient><linearGradient id="paint5_linear" x1="40.756" y1="37.202" x2="40.173" y2="45.718" gradientUnits="userSpaceOnUse"><stop offset=".06" stop-color="#6BE3DF"/><stop offset="1" stop-color="#FFB3EA"/></linearGradient><linearGradient id="paint6_linear" x1="33.451" y1="26.483" x2="31.642" y2="42.142" gradientUnits="userSpaceOnUse"><stop offset=".06" stop-color="#6BE3DF"/><stop offset="1" stop-color="#FFB3EA"/></linearGradient><linearGradient id="paint7_linear" x1="34.935" y1="31.236" x2="34.192" y2="39.776" gradientUnits="userSpaceOnUse"><stop offset=".06" stop-color="#6BE3DF"/><stop offset="1" stop-color="#FFB3EA"/></linearGradient><linearGradient id="paint8_linear" x1="30.26" y1="27.826" x2="29.517" y2="36.366" gradientUnits="userSpaceOnUse"><stop offset=".06" stop-color="#6BE3DF"/><stop offset="1" stop-color="#FFB3EA"/></linearGradient><linearGradient id="paint9_linear" x1="56.55" y1="40.484" x2="56.185" y2="47.728" gradientUnits="userSpaceOnUse"><stop offset=".06" stop-color="#6BE3DF"/><stop offset="1" stop-color="#FFB3EA"/></linearGradient><linearGradient id="paint10_linear" x1="56.387" y1="34.245" x2="55.438" y2="55.534" gradientUnits="userSpaceOnUse"><stop offset=".06" stop-color="#6BE3DF"/><stop offset="1" stop-color="#FFB3EA"/></linearGradient><linearGradient id="paint11_linear" x1="40.246" y1="-.018" x2="31.045" y2="79.03" gradientUnits="userSpaceOnUse"><stop offset=".06" stop-color="#6BE3DF"/><stop offset="1" stop-color="#FFB3EA"/></linearGradient><linearGradient id="paint12_linear" x1="31.623" y1="13.728" x2="31.422" y2="21.945" gradientUnits="userSpaceOnUse"><stop offset=".06" stop-color="#6BE3DF"/><stop offset="1" stop-color="#FFB3EA"/></linearGradient></defs></svg>