<svg width="30" height="30" fill="none" xmlns="http://www.w3.org/2000/svg"><path d="M29.5 15c0 8.008-6.492 14.5-14.5 14.5S.5 23.008.5 15 6.992.5 15 .5 29.5 6.992 29.5 15z" stroke="#97CBF2"/><path d="M17.754 8.182h-5.508a4.077 4.077 0 00-4.064 4.064v5.508a4.077 4.077 0 004.064 4.064h5.508a4.077 4.077 0 004.064-4.064v-5.508c-.02-2.234-1.83-4.064-4.064-4.064zm2.677 9.572a2.692 2.692 0 01-2.696 2.697h-5.49a2.692 2.692 0 01-2.696-2.697v-5.508a2.692 2.692 0 012.697-2.697h5.508a2.692 2.692 0 012.697 2.697v5.508h-.02z" fill="#97CBF2"/><path d="M15 11.475A3.526 3.526 0 0011.475 15 3.526 3.526 0 0015 18.525 3.526 3.526 0 0018.525 15 3.526 3.526 0 0015 11.475zm0 5.663a2.154 2.154 0 01-2.157-2.157c0-1.194.963-2.157 2.157-2.157s2.157.963 2.157 2.157c-.019 1.194-.982 2.157-2.157 2.157zm3.525-4.796a.847.847 0 100-1.695.847.847 0 000 1.695z" fill="#97CBF2"/></svg>