<svg width="42" height="29" fill="none" xmlns="http://www.w3.org/2000/svg"><path d="M10.89 3.748c-3.52 0-6.406 2.885-6.406 6.407 0 1.37.44 2.64 1.173 3.717l-1.124 1.125-1.908-1.957-1.81 1.761 1.908 1.957-1.516 1.467 1.76 1.81 1.517-1.468 1.907 1.957 1.81-1.761-1.908-1.957 1.223-1.173a6.19 6.19 0 003.375.978c3.521 0 6.407-2.886 6.407-6.407 0-3.57-2.837-6.456-6.407-6.456zm0 10.466a4.05 4.05 0 01-4.059-4.06 4.05 4.05 0 014.06-4.059 4.05 4.05 0 014.06 4.06 4.05 4.05 0 01-4.06 4.06z" fill="url(#paint0_linear)"/><path d="M38.819 28.545l-.05.049h.148c-.05 0-.05 0-.098-.05zm2.934-.685s-.049 0 0 0c0 .049.05.049.05.098l.097-.098h-.147zM26.2 1.058h-7.435v2.494h3.229l-3.082 3.081c-.978-.587-2.103-.978-3.277-.978 0 .049-.049.049-.098.098.636.734 1.076 1.418 1.321 2.348 1.516.587 2.69 2.2 2.69 3.961a4.05 4.05 0 01-4.06 4.06 4.05 4.05 0 01-4.059-4.06c0-1.858 1.272-3.423 2.983-3.912-.39-.734-.978-1.37-1.711-1.761h-.147C10.549 7.465 9.13 9.568 9.13 12.062c0 3.522 2.886 6.408 6.407 6.408 3.522 0 6.408-2.886 6.408-6.408 0-1.37-.44-2.64-1.174-3.668l2.983-2.983v3.08h2.495V3.553l-.05-2.494z" fill="#4D59A0"/><path d="M10.695 3.748c-3.521 0-6.407 2.885-6.407 6.407 0 1.37.44 2.64 1.174 3.717l-1.125 1.125-1.908-1.957-1.81 1.761 1.908 1.957-1.516 1.467 1.76 1.81 1.517-1.468 1.907 1.957 1.81-1.761-1.907-1.957 1.222-1.173a6.19 6.19 0 003.375.978c3.522 0 6.407-2.886 6.407-6.407 0-3.57-2.885-6.456-6.407-6.456zm0 10.466a4.05 4.05 0 01-4.06-4.06 4.05 4.05 0 014.06-4.059 4.05 4.05 0 014.06 4.06 4.05 4.05 0 01-4.06 4.06z" fill="url(#paint1_linear)"/><path d="M38.623 28.545l-.05.049h.148c-.05 0-.05 0-.098-.05zm2.885-.685c0 .049.049.049.049.098l.098-.098h-.147zM26.004 1.058H18.57v2.494h3.228l-3.081 3.081c-.979-.587-2.104-.978-3.277-.978 0 .049-.05.049-.098.098.636.734 1.125 1.37 1.37 2.299 1.515.587 2.64 2.25 2.64 4.01a4.05 4.05 0 01-4.06 4.06 4.05 4.05 0 01-4.059-4.06c0-1.858 1.272-3.423 2.984-3.912-.391-.734-.978-1.37-1.712-1.761h-.147c-2.005 1.076-3.423 3.179-3.423 5.673 0 3.522 2.885 6.408 6.407 6.408 3.521 0 6.407-2.886 6.407-6.408 0-1.37-.44-2.64-1.174-3.668l2.984-2.983v3.08h2.494V3.553l-.049-2.494z" fill="#4D59A0"/><path d="M10.695 3.552c-3.521 0-6.407 2.886-6.407 6.407 0 1.37.44 2.641 1.174 3.717l-1.125 1.125-1.908-1.956-1.81 1.76 1.908 1.957-1.516 1.467 1.76 1.81 1.517-1.467 1.907 1.956 1.81-1.76-1.907-1.957 1.222-1.174a6.189 6.189 0 003.375.978c3.522 0 6.407-2.885 6.407-6.407 0-3.62-2.885-6.456-6.407-6.456zm0 10.467a4.05 4.05 0 01-4.06-4.06 4.05 4.05 0 014.06-4.06 4.05 4.05 0 014.06 4.06c0 2.201-1.81 4.06-4.06 4.06z" fill="url(#paint2_linear)"/><path d="M38.623 28.35l-.05.048h.148c-.05 0-.05-.049-.098-.049zm2.885-.686c0 .05.049.05.049.098l.098-.098h-.147zM26.004.813H18.57v2.494h3.228L18.717 6.39c-.979-.587-2.104-.979-3.277-.979 0 .05-.05.05-.098.098.636.734 1.125 1.565 1.37 2.495 1.515.587 2.64 2.054 2.64 3.815a4.05 4.05 0 01-4.06 4.06 4.05 4.05 0 01-4.059-4.06c0-1.859 1.272-3.424 2.984-3.913-.391-.734-.978-1.37-1.712-1.76h-.147c-2.005 1.075-3.423 3.178-3.423 5.673 0 3.521 2.885 6.407 6.407 6.407 3.521 0 6.407-2.886 6.407-6.407 0-1.37-.44-2.641-1.174-3.669l2.984-2.983v3.081h2.494v-4.94L26.004.813z" fill="#4D59A0"/><path d="M38.427 28.35l-.049.048h.147c-.049 0-.098-.049-.098-.049z" fill="url(#paint3_radial)"/><path d="M41.313 27.664c0 .05.048.05.048.098l.098-.098h-.147z" fill="url(#paint4_radial)"/><path d="M25.808.813h-7.434v2.494h3.228L18.521 6.39c-.978-.587-1.957-.979-3.18-.979 0 .05-.048.05-.097.098.636.734 1.174 1.565 1.467 2.495 1.516.587 2.397 2.054 2.397 3.815a4.05 4.05 0 01-4.06 4.06 4.05 4.05 0 01-4.06-4.06c0-1.859 1.273-3.424 2.984-3.913-.391-.734-.978-1.37-1.711-1.76h-.147C10.108 7.22 8.69 9.322 8.69 11.817c0 3.521 2.886 6.407 6.407 6.407 3.522 0 6.407-2.886 6.407-6.407 0-1.37-.44-2.641-1.173-3.669l2.983-2.983v3.081h2.494V.813z" fill="url(#paint5_radial)"/><defs><radialGradient id="paint3_radial" cx="0" cy="0" r="1" gradientUnits="userSpaceOnUse" gradientTransform="translate(38.368 28.34) scale(.1145)"><stop offset=".277" stop-color="#67A1CC"/><stop offset=".417" stop-color="#569CCB"/><stop offset=".561" stop-color="#6AA2CC"/><stop offset=".744" stop-color="#95CCF3"/><stop offset=".781" stop-color="#4478B2"/></radialGradient><radialGradient id="paint4_radial" cx="0" cy="0" r="1" gradientUnits="userSpaceOnUse" gradientTransform="translate(41.327 27.633) scale(.12869)"><stop offset=".277" stop-color="#67A1CC"/><stop offset=".417" stop-color="#569CCB"/><stop offset=".561" stop-color="#6AA2CC"/><stop offset=".744" stop-color="#95CCF3"/><stop offset=".781" stop-color="#4478B2"/></radialGradient><radialGradient id="paint5_radial" cx="0" cy="0" r="1" gradientUnits="userSpaceOnUse" gradientTransform="translate(12.476 -1.627) scale(20.0681)"><stop offset=".277" stop-color="#67A1CC"/><stop offset=".417" stop-color="#569CCB"/><stop offset=".561" stop-color="#6AA2CC"/><stop offset=".744" stop-color="#95CCF3"/><stop offset=".781" stop-color="#4478B2"/></radialGradient><linearGradient id="paint0_linear" x1=".874" y1="12.101" x2="17.305" y2="12.101" gradientUnits="userSpaceOnUse"><stop offset=".12" stop-color="#A24268"/><stop offset=".322" stop-color="#A94970"/><stop offset=".931" stop-color="#A8486E"/></linearGradient><linearGradient id="paint1_linear" x1=".661" y1="12.101" x2="17.091" y2="12.101" gradientUnits="userSpaceOnUse"><stop offset=".12" stop-color="#A24268"/><stop offset=".322" stop-color="#A94970"/><stop offset=".931" stop-color="#A8486E"/></linearGradient><linearGradient id="paint2_linear" x1=".661" y1="11.888" x2="17.091" y2="11.888" gradientUnits="userSpaceOnUse"><stop offset=".12" stop-color="#A24268"/><stop offset=".322" stop-color="#A94970"/><stop offset=".931" stop-color="#A8486E"/></linearGradient></defs></svg>