<svg width="20" height="20" fill="none" xmlns="http://www.w3.org/2000/svg"><path d="M12.262 14.715c1.613-2.676 3.652-6.438 3.652-8.371A5.92 5.92 0 0010 .43a5.92 5.92 0 00-5.914 5.914c0 1.933 2.039 5.695 3.652 8.37-1.914.145-6.27.665-6.27 2.388 0 1.695 4.423 2.468 8.536 2.468 4.11 0 8.535-.773 8.535-2.468-.004-1.723-4.363-2.243-6.277-2.387zm-7.36-8.371A5.107 5.107 0 0110 1.242a5.108 5.108 0 015.102 5.102c0 2.457-3.915 8.62-5.102 10.433-1.187-1.812-5.098-7.976-5.098-10.433zM10 18.754c-4.996 0-7.719-1.094-7.719-1.656 0-.434 1.797-1.367 5.938-1.606a61.002 61.002 0 001.445 2.246c.106.14.414.309.676 0 .082-.097.668-.992 1.445-2.246 4.14.238 5.938 1.168 5.938 1.606-.004.566-2.727 1.656-7.723 1.656z" fill="#97CBF2"/><path d="M12.574 6.344a2.574 2.574 0 10-5.148 0 2.574 2.574 0 005.148 0zm-4.336 0a1.762 1.762 0 113.525 0 1.762 1.762 0 01-3.525 0z" fill="#97CBF2"/></svg>