<svg width="30" height="30" fill="none" xmlns="http://www.w3.org/2000/svg"><path d="M29.5 15c0 8.008-6.492 14.5-14.5 14.5S.5 23.008.5 15 6.992.5 15 .5 29.5 6.992 29.5 15z" stroke="#97CBF2"/><path d="M21.24 9.312A.873.873 0 0020.549 9c-.154 0-.317.032-.484.096L8.68 13.442c-.604.23-.685.576-.68.762.005.186.106.526.723.723l.01.003 2.362.676 1.277 3.651c.174.498.565.807 1.02.807.287 0 .57-.12.816-.347l1.46-1.345 2.12 1.706.02.016.006.005c.235.182.492.279.743.279.49 0 .882-.363.995-.925l1.866-9.21c.074-.37.012-.7-.177-.931zm-9.355 6.165l4.556-2.327-2.837 3.014a.394.394 0 00-.096.176l-.547 2.215-1.076-3.078zm1.79 3.66a.765.765 0 01-.057.047l.507-2.055.923.743-1.374 1.265zm6.97-9.05l-1.865 9.21c-.018.088-.075.293-.223.293a.46.46 0 01-.258-.112l-2.4-1.933h-.001l-1.429-1.15 4.102-4.36a.394.394 0 00-.466-.62l-6.747 3.446-2.393-.684 11.38-4.345a.578.578 0 01.203-.044c.024 0 .067.003.083.022.02.026.047.113.014.277z" fill="#97CBF2"/></svg>