<svg width="17" height="19" fill="none" xmlns="http://www.w3.org/2000/svg"><g fill="#fff"><path d="M15.562 10.665c-.461 3.856-3.118 4.114-3.614 4.26-.213.074-2.162.588-4.606.404l-2.658 3.05v-3.49H4.65C1.14 13.86 1.283 9.93 1.319 7.836c.035-2.057.39-3.746 1.487-4.885 1.95-1.873 5.953-1.58 5.953-1.58 3.401 0 5.031 1.103 5.385 1.47 1.276 1.139 1.914 3.857 1.418 7.824zm-.496-8.816C14.604 1.41 12.832.013 8.83.013c0 0-4.713-.294-7.016 1.946C.504 3.32.078 5.302.007 7.8c-.035 2.462-.106 7.09 4.11 8.339v1.91s-.035.77.461.918c.567.183.921-.404 1.488-1.029.319-.33.709-.844 1.028-1.248 2.87.257 5.102-.331 5.35-.404.566-.184 3.862-.625 4.393-5.253.532-4.775-.283-7.787-1.771-9.183z"/><path d="M12.514 11.252s-.531-.477-.814-.698c-.248-.183-.638-.44-.85-.587-.39-.22-.816-.074-.957.147l-.355.477c-.177.22-.46.184-.531.184-.496-.147-1.063-.478-1.63-1.029-.567-.55-.921-1.138-1.027-1.763v-.036c-.036-.258 0-.368.106-.551h.035c.248-.22.673-.515.744-.772.177-.44-.567-1.396-.673-1.58 0 0-.531-.734-.744-.88-.213-.184-.531-.295-.85-.074-.921.66-1.276 1.028-1.17 1.58l.036.22c.46 1.542 1.382 3.195 2.728 4.628a11.957 11.957 0 004.216 2.901c.355.11.744 0 1.17-.33.319-.294.531-.625.708-.955.177-.33.106-.661-.142-.882zm-2.232-3.379c-.07 0-.106-.037-.106-.11-.035-.404-.106-.698-.319-.918-.177-.22-.46-.33-.815-.33-.07 0-.106-.074-.106-.111 0-.074.07-.11.106-.11.425.036.744.147.957.404.212.257.354.587.354 1.065.036.073 0 .11-.07.11z"/><path d="M11.345 8.24c-.07 0-.106-.036-.106-.11 0-.771-.213-1.396-.638-1.91-.212-.257-.496-.44-.78-.587-.318-.147-.672-.22-1.062-.258-.071 0-.106-.073-.106-.11 0-.073.07-.11.106-.11.85.073 1.523.367 2.02.918.495.551.708 1.25.708 2.094-.035.037-.07.073-.142.073z"/><path d="M12.444 8.718c-.071 0-.107-.037-.107-.11a6.03 6.03 0 00-.283-1.837 3.773 3.773 0 00-.85-1.395 3.655 3.655 0 00-1.276-.882A4.224 4.224 0 008.369 4.2c-.07 0-.106-.037-.106-.11 0-.074.035-.11.106-.11 1.17 0 2.161.44 2.94 1.249.39.404.71.918.887 1.469.212.55.319 1.212.319 1.91.035.037-.036.11-.071.11z"/></g></svg>