<svg width="135" height="137" viewBox="0 0 135 137" fill="none" xmlns="http://www.w3.org/2000/svg">
<g filter="url(#filter0_d)">
<path d="M56.2293 67.6269C52.4772 63.821 54.202 57.384 59.3543 55.9641L73.8673 51.9645C79.0836 50.5269 83.8889 55.2983 82.4885 60.5246L78.5444 75.2444C77.144 80.4708 70.5967 82.2002 66.798 78.3471L56.2293 67.6269Z" fill="#A4E1FF"/>
</g>
<g clip-path="url(#clip0)">
<path d="M65.6192 51.8917C63.7054 49.9639 61.161 48.902 58.4544 48.902C55.7479 48.902 53.2034 49.9638 51.2896 51.8917C47.339 55.8715 47.339 62.3471 51.2896 66.3269C53.2034 68.2548 55.7479 69.3166 58.4544 69.3166C61.1609 69.3166 63.7054 68.2549 65.6192 66.3269C67.5329 64.3991 68.5869 61.8358 68.5869 59.1093C68.5869 56.3829 67.5329 53.8197 65.6192 51.8917ZM52.1056 52.7138C53.8014 51.0055 56.0561 50.0646 58.4543 50.0646C60.8525 50.0646 63.1072 51.0055 64.803 52.7138C66.1414 54.062 67.0048 55.7612 67.3094 57.6051L64.1642 60.7035C63.8663 60.5341 63.5229 60.4371 63.1572 60.4371C62.4452 60.4371 61.8168 60.8036 61.4476 61.359L56.8247 59.8978C56.825 59.8843 56.8257 59.8708 56.8257 59.8573C56.8257 58.7151 55.9033 57.7858 54.7694 57.7858C53.6356 57.7858 52.7131 58.7151 52.7131 59.8573C52.7131 60.2307 52.8122 60.581 52.9845 60.884L50.5589 63.4168C48.7185 59.9887 49.2336 55.607 52.1056 52.7138ZM64.0596 62.5085C64.0596 63.0097 63.6547 63.4175 63.1572 63.4175C62.6597 63.4175 62.2549 63.0097 62.2549 62.5085C62.2549 62.0073 62.6597 61.5995 63.1572 61.5995C63.6547 61.5995 64.0596 62.0073 64.0596 62.5085ZM55.6718 59.8572C55.6718 60.3583 55.267 60.7661 54.7695 60.7661C54.2719 60.7661 53.8671 60.3583 53.8671 59.8572C53.8671 59.356 54.2719 58.9482 54.7695 58.9482C55.267 58.9482 55.6718 59.356 55.6718 59.8572ZM64.8031 65.505C63.1073 67.2133 60.8526 68.1541 58.4544 68.1541C56.0562 68.1541 53.8015 67.2133 52.1057 65.505C51.7689 65.1657 51.4647 64.8057 51.1927 64.4294L53.815 61.6911C54.1004 61.8425 54.4251 61.9286 54.7695 61.9286C55.4815 61.9286 56.1099 61.5621 56.479 61.0067L61.1019 62.468C61.1017 62.4814 61.1009 62.4949 61.1009 62.5084C61.1009 63.6506 62.0233 64.5799 63.1572 64.5799C64.2911 64.5799 65.2136 63.6506 65.2136 62.5084C65.2136 62.1565 65.1257 61.8249 64.9714 61.5343L67.4329 59.1095C67.4329 61.5254 66.4989 63.7967 64.8031 65.505Z" fill="#4A4D52"/>
<path d="M53.3447 53.1797L54.1018 54.057C55.8911 52.4903 58.3999 52.0072 60.6494 52.7965L61.029 51.6987C58.3901 50.7727 55.4457 51.3402 53.3447 53.1797Z" fill="#4A4D52"/>
<path d="M62.51 52.4031L61.9097 53.396C62.2151 53.5833 62.5082 53.7982 62.7809 54.0345L63.5335 53.1531C63.2133 52.8757 62.8689 52.6234 62.51 52.4031Z" fill="#4A4D52"/>
<path d="M59.8348 65.6505C58.5364 65.9262 57.2022 65.8102 55.9757 65.3152L55.5466 66.3943C56.4765 66.7696 57.459 66.9593 58.4486 66.9593C58.9904 66.9593 59.5343 66.9024 60.0729 66.788L59.8348 65.6505Z" fill="#4A4D52"/>
<path d="M72.9088 68.4482L72.071 69.2922L69.9924 67.054C72.4525 63.4313 73.0448 58.8992 71.7686 54.8386L73.4177 53.214C73.7078 53.3719 74.0395 53.4616 74.3918 53.4616C75.5256 53.4616 76.4481 52.5323 76.4481 51.3901C76.4481 51.0518 76.3667 50.7326 76.2233 50.4502L79.7636 46.9627V48.7653H80.9176V45.0001H77.1801V46.1626H78.9253L75.4317 49.6041C75.1264 49.423 74.7711 49.3185 74.3918 49.3185C73.258 49.3185 72.3355 50.2478 72.3355 51.39C72.3355 51.7555 72.4304 52.099 72.596 52.3974L71.3321 53.6424C70.6517 52.0102 69.6538 50.4815 68.3365 49.1544C62.8874 43.6653 54.0215 43.6654 48.5725 49.1544C43.7185 54.0442 43.1886 61.6654 46.9822 67.1516L46.0107 68.1662C45.7252 68.0148 45.4005 67.9287 45.0561 67.9287C43.9223 67.9286 42.9999 68.8579 42.9999 70.0001C42.9999 71.1423 43.9223 72.0716 45.0562 72.0716C46.1901 72.0716 47.1125 71.1423 47.1125 70.0001C47.1125 69.6266 47.0135 69.2763 46.8411 68.9734L47.6899 68.087C47.9665 68.4231 48.26 68.7494 48.5724 69.0642C51.2969 71.8087 54.8757 73.1809 58.4544 73.1809C61.2016 73.1809 63.9485 72.3713 66.3093 70.7539L68.3928 72.9975L67.5264 73.8703L77.6173 84.0001L82.9999 78.578L72.9088 68.4482ZM74.3918 50.4811C74.8893 50.4811 75.2942 50.8889 75.2942 51.3901C75.2942 51.8913 74.8893 52.2991 74.3918 52.2991C73.8943 52.2991 73.4895 51.8913 73.4895 51.3901C73.4895 50.8889 73.8943 50.4811 74.3918 50.4811ZM45.0562 70.909C44.5587 70.909 44.1539 70.5012 44.1539 70C44.1539 69.4988 44.5587 69.091 45.0562 69.091C45.5538 69.091 45.9586 69.4988 45.9586 70C45.9585 70.5012 45.5537 70.909 45.0562 70.909ZM49.3884 68.2422C44.3894 63.2064 44.3894 55.0125 49.3884 49.9765C51.8879 47.4585 55.1711 46.1997 58.4543 46.1997C61.7376 46.1997 65.0209 47.4587 67.5204 49.9765C72.5193 55.0123 72.5193 63.2063 67.5204 68.2422C62.5215 73.278 54.3872 73.278 49.3884 68.2422ZM67.2419 70.0566C67.6197 69.7485 67.9852 69.4179 68.3365 69.0642C68.6758 68.7223 68.994 68.367 69.291 68.0002L71.2547 70.1145L69.2093 72.175L67.2419 70.0566ZM77.616 82.3576L69.1599 73.8688L72.9104 70.0907L81.3664 78.5793L77.616 82.3576Z" fill="#4A4D52"/>
<path d="M72.9097 71.7782L71.2584 73.4416L72.0745 74.2636L72.9097 73.4222L76.0945 76.6306L76.9104 75.8086L72.9097 71.7782Z" fill="#4A4D52"/>
<path d="M77.8998 76.8032L77.0838 77.6252L77.939 78.4867L78.755 77.6647L77.8998 76.8032Z" fill="#4A4D52"/>
<path d="M50.4061 73.7765H49.2521V75.043H50.4061V73.7765Z" fill="#4A4D52"/>
<path d="M50.4061 80.8753H49.2521V82.1418H50.4061V80.8753Z" fill="#4A4D52"/>
<path d="M59.9101 76.2192H58.7561V77.4856H59.9101V76.2192Z" fill="#4A4D52"/>
<path d="M76.4481 65.7639H75.2941V67.0304H76.4481V65.7639Z" fill="#4A4D52"/>
<path d="M77.7574 55.6767H76.6034V56.9432H77.7574V55.6767Z" fill="#4A4D52"/>
<path d="M81.5817 61.0179H80.4277V62.2845H81.5817V61.0179Z" fill="#4A4D52"/>
</g>
<mask id="mask0" mask-type="alpha" maskUnits="userSpaceOnUse" x="50" y="46" width="35" height="37">
<path d="M56.2293 67.627C52.4772 63.8211 54.202 57.3841 59.3543 55.9641L73.8673 51.9646C79.0836 50.527 83.8889 55.2983 82.4885 60.5247L78.5444 75.2445C77.144 80.4709 70.5967 82.2003 66.798 78.3472L56.2293 67.627Z" fill="#19B6FF"/>
</mask>
<g mask="url(#mask0)">
<path d="M65.6192 51.8917C63.7054 49.9638 61.161 48.902 58.4544 48.902C55.7479 48.902 53.2034 49.9637 51.2896 51.8917C47.339 55.8714 47.339 62.347 51.2896 66.3269C53.2034 68.2547 55.7479 69.3166 58.4544 69.3166C61.1609 69.3166 63.7054 68.2548 65.6192 66.3269C67.5329 64.399 68.5869 61.8357 68.5869 59.1093C68.5869 56.3828 67.5329 53.8196 65.6192 51.8917ZM52.1056 52.7137C53.8014 51.0054 56.0561 50.0646 58.4543 50.0646C60.8525 50.0646 63.1072 51.0054 64.803 52.7137C66.1414 54.0619 67.0048 55.7611 67.3094 57.6051L64.1642 60.7034C63.8663 60.5341 63.5229 60.437 63.1572 60.437C62.4452 60.437 61.8168 60.8035 61.4476 61.3589L56.8247 59.8977C56.825 59.8842 56.8257 59.8708 56.8257 59.8572C56.8257 58.7151 55.9033 57.7858 54.7694 57.7858C53.6356 57.7858 52.7131 58.7151 52.7131 59.8572C52.7131 60.2306 52.8122 60.581 52.9845 60.8839L50.5589 63.4167C48.7185 59.9886 49.2336 55.6069 52.1056 52.7137ZM64.0596 62.5085C64.0596 63.0096 63.6547 63.4174 63.1572 63.4174C62.6597 63.4174 62.2549 63.0096 62.2549 62.5085C62.2549 62.0073 62.6597 61.5995 63.1572 61.5995C63.6547 61.5995 64.0596 62.0072 64.0596 62.5085ZM55.6718 59.8571C55.6718 60.3583 55.267 60.7661 54.7695 60.7661C54.2719 60.7661 53.8671 60.3583 53.8671 59.8571C53.8671 59.3559 54.2719 58.9481 54.7695 58.9481C55.267 58.9482 55.6718 59.3559 55.6718 59.8571ZM64.8031 65.5049C63.1073 67.2132 60.8526 68.1541 58.4544 68.1541C56.0562 68.1541 53.8015 67.2133 52.1057 65.5049C51.7689 65.1656 51.4647 64.8057 51.1927 64.4293L53.815 61.6911C54.1004 61.8425 54.4251 61.9286 54.7695 61.9286C55.4815 61.9286 56.1099 61.5621 56.479 61.0067L61.1019 62.4679C61.1017 62.4814 61.1009 62.4948 61.1009 62.5084C61.1009 63.6506 62.0233 64.5799 63.1572 64.5799C64.2911 64.5799 65.2136 63.6506 65.2136 62.5084C65.2136 62.1564 65.1257 61.8249 64.9714 61.5343L67.4329 59.1094C67.4329 61.5253 66.4989 63.7966 64.8031 65.5049Z" fill="#4A4D52"/>
<path d="M53.3447 53.1796L54.1018 54.057C55.8911 52.4902 58.3999 52.0071 60.6494 52.7964L61.029 51.6986C58.3901 50.7726 55.4457 51.3401 53.3447 53.1796Z" fill="#4A4D52"/>
<path d="M62.51 52.4031L61.9097 53.3959C62.2151 53.5833 62.5082 53.7981 62.7809 54.0344L63.5335 53.153C63.2133 52.8757 62.8689 52.6234 62.51 52.4031Z" fill="#4A4D52"/>
<path d="M59.8348 65.6504C58.5364 65.9261 57.2022 65.8101 55.9757 65.3152L55.5466 66.3942C56.4765 66.7696 57.459 66.9592 58.4486 66.9592C58.9904 66.9592 59.5343 66.9023 60.0729 66.788L59.8348 65.6504Z" fill="#4A4D52"/>
<path d="M72.9088 68.4481L72.071 69.2921L69.9924 67.0539C72.4525 63.4312 73.0448 58.8991 71.7686 54.8386L73.4177 53.2139C73.7078 53.3718 74.0395 53.4615 74.3918 53.4615C75.5256 53.4615 76.4481 52.5322 76.4481 51.39C76.4481 51.0518 76.3667 50.7325 76.2233 50.4501L79.7636 46.9626V48.7652H80.9176V45.0001H77.1801V46.1626H78.9253L75.4317 49.604C75.1264 49.4229 74.7711 49.3185 74.3918 49.3185C73.258 49.3185 72.3355 50.2478 72.3355 51.39C72.3355 51.7554 72.4304 52.0989 72.596 52.3973L71.3321 53.6424C70.6517 52.0101 69.6538 50.4814 68.3365 49.1544C62.8874 43.6652 54.0215 43.6654 48.5725 49.1544C43.7185 54.0442 43.1886 61.6653 46.9822 67.1516L46.0107 68.1661C45.7252 68.0147 45.4005 67.9286 45.0561 67.9286C43.9223 67.9285 42.9999 68.8578 42.9999 70C42.9999 71.1422 43.9223 72.0715 45.0562 72.0715C46.1901 72.0715 47.1125 71.1422 47.1125 70C47.1125 69.6266 47.0135 69.2763 46.8411 68.9734L47.6899 68.0869C47.9665 68.423 48.26 68.7494 48.5724 69.0641C51.2969 71.8086 54.8757 73.1809 58.4544 73.1809C61.2016 73.1809 63.9485 72.3712 66.3093 70.7539L68.3928 72.9974L67.5264 73.8702L77.6173 84.0001L82.9999 78.5779L72.9088 68.4481ZM74.3918 50.481C74.8893 50.481 75.2942 50.8889 75.2942 51.39C75.2942 51.8912 74.8893 52.299 74.3918 52.299C73.8943 52.299 73.4895 51.8912 73.4895 51.39C73.4895 50.8889 73.8943 50.481 74.3918 50.481ZM45.0562 70.9089C44.5587 70.9089 44.1539 70.5011 44.1539 69.9999C44.1539 69.4988 44.5587 69.0909 45.0562 69.0909C45.5538 69.0909 45.9586 69.4988 45.9586 69.9999C45.9585 70.5012 45.5537 70.9089 45.0562 70.9089ZM49.3884 68.2421C44.3894 63.2063 44.3894 55.0124 49.3884 49.9764C51.8879 47.4584 55.1711 46.1996 58.4543 46.1996C61.7376 46.1996 65.0209 47.4586 67.5204 49.9764C72.5193 55.0123 72.5193 63.2062 67.5204 68.2421C62.5215 73.2779 54.3872 73.2779 49.3884 68.2421ZM67.2419 70.0565C67.6197 69.7484 67.9852 69.4179 68.3365 69.0641C68.6758 68.7222 68.994 68.367 69.291 68.0001L71.2547 70.1144L69.2093 72.1749L67.2419 70.0565ZM77.616 82.3575L69.1599 73.8687L72.9104 70.0906L81.3664 78.5793L77.616 82.3575Z" fill="#4A4D52"/>
<path d="M72.9097 71.7782L71.2584 73.4415L72.0745 74.2636L72.9097 73.4222L76.0945 76.6305L76.9104 75.8085L72.9097 71.7782Z" fill="#4A4D52"/>
<path d="M77.8998 76.8031L77.0838 77.6251L77.939 78.4866L78.755 77.6646L77.8998 76.8031Z" fill="#4A4D52"/>
<path d="M50.4061 73.7764H49.2521V75.0429H50.4061V73.7764Z" fill="#4A4D52"/>
<path d="M50.4061 80.8752H49.2521V82.1418H50.4061V80.8752Z" fill="#4A4D52"/>
<path d="M59.9101 76.2191H58.7561V77.4856H59.9101V76.2191Z" fill="#4A4D52"/>
<path d="M76.4481 65.7638H75.2941V67.0304H76.4481V65.7638Z" fill="#4A4D52"/>
<path d="M77.7574 55.6766H76.6034V56.9432H77.7574V55.6766Z" fill="#4A4D52"/>
<path d="M81.5817 61.0179H80.4277V62.2844H81.5817V61.0179Z" fill="#4A4D52"/>
</g>
<defs>
<filter id="filter0_d" x="0.666059" y="0.769165" width="133.637" height="135.247" filterUnits="userSpaceOnUse" color-interpolation-filters="sRGB">
<feFlood flood-opacity="0" result="BackgroundImageFix"/>
<feColorMatrix in="SourceAlpha" type="matrix" values="0 0 0 0 0 0 0 0 0 0 0 0 0 0 0 0 0 0 127 0"/>
<feOffset dy="4"/>
<feGaussianBlur stdDeviation="25"/>
<feColorMatrix type="matrix" values="0 0 0 0 0 0 0 0 0 0.297908 0 0 0 0 0.441667 0 0 0 0.08 0"/>
<feBlend mode="normal" in2="BackgroundImageFix" result="effect1_dropShadow"/>
<feBlend mode="normal" in="SourceGraphic" in2="effect1_dropShadow" result="shape"/>
</filter>
<clipPath id="clip0">
<rect width="34.3165" height="51.04" fill="white" transform="translate(56.1068 28.7488) rotate(29.0174)"/>
</clipPath>
</defs>
</svg>
