<svg width="135" height="136" viewBox="0 0 135 136" fill="none" xmlns="http://www.w3.org/2000/svg">
<g filter="url(#filter0_d)">
<path d="M56.4984 66.9878C52.7463 63.1819 54.4711 56.7449 59.6235 55.325L74.1364 51.3254C79.3527 49.8878 84.1581 54.6592 82.7577 59.8855L78.8135 74.6053C77.4131 79.8317 70.8659 81.5611 67.0672 77.708L56.4984 66.9878Z" fill="#A4E1FF"/>
</g>
<path d="M71.6182 74.4785C69.4451 74.4785 67.6771 76.2464 67.6771 78.4196C67.6771 80.5927 69.4451 82.3607 71.6182 82.3607C73.7912 82.3607 75.5592 80.5928 75.5592 78.4196C75.5592 76.2466 73.7912 74.4785 71.6182 74.4785ZM71.6182 81.2068C70.0813 81.2068 68.831 79.9565 68.831 78.4196C68.831 76.8828 70.0813 75.6325 71.6182 75.6325C73.155 75.6325 74.4054 76.8828 74.4054 78.4197C74.4054 79.9566 73.155 81.2068 71.6182 81.2068Z" fill="#4A4D52"/>
<path d="M87.6771 58.4196C85.5041 58.4196 83.7361 60.1875 83.7361 62.3607C83.7361 64.5338 85.504 66.3017 87.6771 66.3017C89.8503 66.3017 91.6182 64.5337 91.6182 62.3607C91.6182 60.1876 89.8503 58.4196 87.6771 58.4196ZM87.6771 65.1478C86.1403 65.1478 84.89 63.8975 84.89 62.3607C84.89 60.8238 86.1403 59.5735 87.6771 59.5735C89.214 59.5735 90.4643 60.8238 90.4643 62.3607C90.4643 63.8975 89.214 65.1478 87.6771 65.1478Z" fill="#4A4D52"/>
<path d="M55.5593 58.4196C53.3861 58.4196 51.6182 60.1876 51.6182 62.3607C51.6182 64.5337 53.3861 66.3017 55.5592 66.3017C57.7322 66.3017 59.5003 64.5338 59.5003 62.3607C59.5003 60.1875 57.7323 58.4196 55.5593 58.4196ZM55.5592 65.1478C54.0223 65.1478 52.772 63.8975 52.772 62.3607C52.772 60.8238 54.0223 59.5735 55.5592 59.5735C57.0961 59.5735 58.3464 60.8238 58.3464 62.3607C58.3464 63.8975 57.096 65.1478 55.5592 65.1478Z" fill="#4A4D52"/>
<path d="M85.7603 48.2186C84.2237 46.682 81.7234 46.682 80.1869 48.2186C78.6503 49.7553 78.6503 52.2554 80.1869 53.7921C80.9551 54.5603 81.9644 54.9444 82.9736 54.9444C83.9829 54.9444 84.9921 54.5603 85.7604 53.7921C87.2969 52.2554 87.2969 49.7553 85.7603 48.2186ZM84.9444 52.9761C83.8577 54.0629 82.0894 54.0627 81.0027 52.9762C79.916 51.8894 79.916 50.1212 81.0027 49.0345C81.5461 48.4911 82.2598 48.2194 82.9736 48.2194C83.6873 48.2194 84.401 48.4911 84.9444 49.0345C86.0311 50.1212 86.0311 51.8894 84.9444 52.9761Z" fill="#4A4D52"/>
<path d="M63.0495 48.2186C61.5129 46.682 59.0126 46.682 57.4761 48.2186C55.9394 49.7553 55.9394 52.2554 57.4761 53.7921C58.2443 54.5603 59.2536 54.9444 60.2629 54.9444C61.2721 54.9444 62.2813 54.5603 63.0496 53.7921C64.5861 52.2554 64.5861 49.7553 63.0495 48.2186ZM62.2336 52.9761C61.1469 54.0628 59.3786 54.0628 58.2919 52.9761C57.2051 51.8894 57.2051 50.1212 58.2919 49.0345C59.3786 47.9476 61.1468 47.9476 62.2336 49.0345C63.3204 50.1212 63.3204 51.8894 62.2336 52.9761Z" fill="#4A4D52"/>
<path d="M73.3231 56.2851L73.011 57.396C74.8582 57.9149 76.256 59.4013 76.6589 61.2752L77.787 61.0326C77.2939 58.7392 75.5833 56.9201 73.3231 56.2851Z" fill="#4A4D52"/>
<path d="M77.9268 62.2451L76.7732 62.2663C76.7737 62.2976 76.774 62.329 76.774 62.3607C76.774 62.6607 76.7479 62.9617 76.6964 63.255L77.8329 63.4545C77.8959 63.0954 77.9279 62.7274 77.9279 62.3607C77.9279 62.3221 77.9275 62.2835 77.9268 62.2451Z" fill="#4A4D52"/>
<path d="M66.8743 64.3798L65.8132 64.8332C66.3759 66.1498 67.3821 67.2481 68.6463 67.9256L69.1914 66.9086C68.1572 66.3545 67.3343 65.4564 66.8743 64.3798Z" fill="#4A4D52"/>
<path d="M85.7603 70.9293C84.6013 69.7703 82.8941 69.4861 81.4657 70.0755C81.1711 70.1971 80.8885 70.3557 80.625 70.5515L77.8722 67.7988C78.5435 67.0278 79.0745 66.1321 79.426 65.1514C79.7388 64.2789 79.9097 63.3394 79.9097 62.3606C79.9097 59.0575 77.9679 56.1996 75.1662 54.8675C74.2544 54.4341 73.2517 54.1624 72.195 54.0894V50.2C72.5199 50.1522 72.8319 50.0645 73.1261 49.9422C74.553 49.349 75.5591 47.9408 75.5591 46.3017C75.5592 44.1286 73.7912 42.3607 71.6182 42.3607C69.4451 42.3607 67.6771 44.1286 67.6771 46.3017C67.6771 48.2788 69.1407 49.92 71.0412 50.2V54.0894C66.7374 54.3868 63.3265 57.9825 63.3265 62.3607C63.3265 64.4395 64.0957 66.342 65.3641 67.7988L62.6114 70.5515C61.0695 69.4057 58.8739 69.5314 57.476 70.9293C55.9393 72.466 55.9393 74.9661 57.476 76.5028C58.2443 77.271 59.2536 77.6551 60.2628 77.6551C61.272 77.6551 62.2812 77.271 63.0495 76.5028C64.4475 75.1047 64.5731 72.9093 63.4273 71.3674L66.18 68.6146C67.6369 69.8831 69.5393 70.6522 71.6181 70.6522C73.6969 70.6522 75.5993 69.8831 77.0562 68.6146L79.8089 71.3673C78.663 72.9093 78.7886 75.1047 80.1866 76.5028C80.9549 77.271 81.9642 77.6551 82.9734 77.6551C83.9826 77.6551 84.9918 77.271 85.7602 76.5028C87.2969 74.9662 87.2969 72.466 85.7603 70.9293ZM62.2336 75.6869C61.1468 76.7738 59.3787 76.7738 58.2919 75.6869C57.2052 74.6002 57.2052 72.832 58.2919 71.7453C58.8353 71.2018 59.5489 70.9302 60.2628 70.9302C60.9764 70.9302 61.6904 71.2019 62.2336 71.7452C63.3204 72.832 63.3204 74.6002 62.2336 75.6869ZM68.831 46.3017C68.831 44.7648 70.0813 43.5145 71.6182 43.5145C73.155 43.5145 74.4054 44.7648 74.4054 46.3017C74.4054 47.8386 73.155 49.0888 71.6182 49.0888C70.0813 49.0888 68.831 47.8386 68.831 46.3017ZM71.6182 69.4984C67.6824 69.4984 64.4804 66.2964 64.4804 62.3607C64.4804 58.4249 67.6825 55.2229 71.6182 55.2229C75.5539 55.2229 78.7559 58.425 78.7559 62.3607C78.7559 66.2964 75.5539 69.4984 71.6182 69.4984ZM84.9444 75.6869C83.8576 76.7738 82.0895 76.7738 81.0027 75.6869C79.916 74.6002 79.916 72.832 81.0027 71.7453C82.0895 70.6584 83.8576 70.6584 84.9444 71.7453C86.0311 72.832 86.0311 74.6002 84.9444 75.6869Z" fill="#4A4D52"/>
<path d="M72.195 45.6675H71.0412V46.936H72.195V45.6675Z" fill="#4A4D52"/>
<path d="M72.195 77.7853H71.0412V79.0538H72.195V77.7853Z" fill="#4A4D52"/>
<path d="M60.8396 50.3714H59.6858V51.64H60.8396V50.3714Z" fill="#4A4D52"/>
<path d="M60.8396 73.0814H59.6858V74.35H60.8396V73.0814Z" fill="#4A4D52"/>
<path d="M56.1361 61.7261H54.9822V62.9946H56.1361V61.7261Z" fill="#4A4D52"/>
<path d="M83.5504 50.3714H82.3966V51.64H83.5504V50.3714Z" fill="#4A4D52"/>
<path d="M83.5504 73.0814H82.3966V74.35H83.5504V73.0814Z" fill="#4A4D52"/>
<path d="M88.2543 61.7261H87.1005V62.9946H88.2543V61.7261Z" fill="#4A4D52"/>
<path d="M80 42H81V43H80V42Z" fill="#4A4D52"/>
<path d="M62 46H63V47H62V46Z" fill="#4A4D52"/>
<path d="M68 40H69V41H68V40Z" fill="#4A4D52"/>
<path d="M53 49H54V50H53V49Z" fill="#4A4D52"/>
<path d="M61 59H62V60H61V59Z" fill="#4A4D52"/>
<path d="M48 56H49V57H48V56Z" fill="#4A4D52"/>
<path d="M58 41H59V42H58V41Z" fill="#4A4D52"/>
<mask id="mask0" mask-type="alpha" maskUnits="userSpaceOnUse" x="50" y="46" width="35" height="36">
<path d="M56.4984 66.9878C52.7463 63.1819 54.4711 56.7449 59.6235 55.325L74.1364 51.3254C79.3527 49.8878 84.1581 54.6592 82.7577 59.8855L78.8135 74.6053C77.4131 79.8317 70.8659 81.5611 67.0672 77.708L56.4984 66.9878Z" fill="#19B6FF"/>
</mask>
<g mask="url(#mask0)">
<path d="M71.6178 74.4786C69.4448 74.4786 67.6768 76.2465 67.6768 78.4196C67.6768 80.5927 69.4448 82.3607 71.6178 82.3607C73.7908 82.3607 75.5588 80.5928 75.5588 78.4197C75.5588 76.2467 73.7908 74.4786 71.6178 74.4786ZM71.6178 81.2069C70.0809 81.2069 68.8306 79.9566 68.8306 78.4197C68.8306 76.8828 70.0809 75.6326 71.6178 75.6326C73.1547 75.6326 74.405 76.8829 74.405 78.4198C74.405 79.9567 73.1547 81.2069 71.6178 81.2069Z" fill="#4A4D52"/>
<path d="M87.6768 58.4197C85.5037 58.4197 83.7358 60.1876 83.7358 62.3607C83.7358 64.5338 85.5037 66.3017 87.6768 66.3017C89.8499 66.3017 91.6178 64.5338 91.6178 62.3607C91.6178 60.1877 89.8499 58.4197 87.6768 58.4197ZM87.6768 65.1479C86.1399 65.1479 84.8896 63.8976 84.8896 62.3607C84.8896 60.8238 86.1399 59.5735 87.6768 59.5735C89.2137 59.5735 90.464 60.8238 90.464 62.3607C90.464 63.8976 89.2137 65.1479 87.6768 65.1479Z" fill="#4A4D52"/>
<path d="M55.5589 58.4197C53.3858 58.4197 51.6178 60.1877 51.6178 62.3607C51.6178 64.5338 53.3857 66.3017 55.5588 66.3017C57.7319 66.3017 59.4999 64.5338 59.4999 62.3607C59.4999 60.1876 57.7319 58.4197 55.5589 58.4197ZM55.5588 65.1479C54.0219 65.1479 52.7716 63.8976 52.7716 62.3607C52.7716 60.8238 54.0219 59.5735 55.5588 59.5735C57.0957 59.5735 58.346 60.8238 58.346 62.3607C58.346 63.8976 57.0956 65.1479 55.5588 65.1479Z" fill="#4A4D52"/>
<path d="M85.76 48.2186C84.2233 46.682 81.723 46.682 80.1865 48.2186C78.6499 49.7553 78.6499 52.2555 80.1865 53.7921C80.9548 54.5603 81.964 54.9445 82.9733 54.9445C83.9825 54.9445 84.9917 54.5604 85.7601 53.7921C87.2965 52.2555 87.2965 49.7553 85.76 48.2186ZM84.944 52.9762C83.8573 54.063 82.089 54.0627 81.0023 52.9763C79.9156 51.8895 79.9156 50.1213 81.0023 49.0345C81.5457 48.4912 82.2594 48.2195 82.9732 48.2195C83.6869 48.2195 84.4006 48.4911 84.944 49.0345C86.0308 50.1213 86.0308 51.8895 84.944 52.9762Z" fill="#4A4D52"/>
<path d="M63.0491 48.2186C61.5125 46.682 59.0123 46.682 57.4757 48.2186C55.939 49.7553 55.939 52.2555 57.4757 53.7921C58.244 54.5603 59.2533 54.9445 60.2625 54.9445C61.2717 54.9445 62.2809 54.5604 63.0492 53.7921C64.5857 52.2555 64.5857 49.7553 63.0491 48.2186ZM62.2333 52.9762C61.1465 54.0629 59.3783 54.0629 58.2915 52.9762C57.2048 51.8895 57.2048 50.1213 58.2915 49.0345C59.3783 47.9477 61.1465 47.9477 62.2333 49.0345C63.32 50.1213 63.32 51.8895 62.2333 52.9762Z" fill="#4A4D52"/>
<path d="M73.3227 56.2852L73.0106 57.396C74.8578 57.9149 76.2556 59.4013 76.6586 61.2752L77.7866 61.0327C77.2935 58.7392 75.583 56.9202 73.3227 56.2852Z" fill="#4A4D52"/>
<path d="M77.9264 62.2452L76.7728 62.2663C76.7733 62.2977 76.7737 62.3291 76.7737 62.3607C76.7737 62.6608 76.7476 62.9617 76.6961 63.255L77.8326 63.4545C77.8955 63.0955 77.9275 62.7274 77.9275 62.3607C77.9275 62.3221 77.9271 62.2835 77.9264 62.2452Z" fill="#4A4D52"/>
<path d="M66.8739 64.3799L65.8129 64.8332C66.3755 66.1499 67.3817 67.2481 68.6459 67.9256L69.191 66.9086C68.1569 66.3545 67.334 65.4564 66.8739 64.3799Z" fill="#4A4D52"/>
<path d="M85.76 70.9294C84.6009 69.7704 82.8937 69.4862 81.4653 70.0756C81.1708 70.1971 80.8881 70.3557 80.6246 70.5516L77.8719 67.7988C78.5431 67.0279 79.0741 66.1321 79.4256 65.1515C79.7384 64.279 79.9094 63.3395 79.9094 62.3606C79.9094 59.0575 77.9676 56.1996 75.1658 54.8676C74.254 54.4342 73.2513 54.1624 72.1947 54.0895V50.2001C72.5195 50.1523 72.8315 50.0645 73.1257 49.9423C74.5526 49.3491 75.5587 47.9409 75.5587 46.3017C75.5588 44.1286 73.7908 42.3607 71.6178 42.3607C69.4448 42.3607 67.6768 44.1286 67.6768 46.3017C67.6768 48.2788 69.1404 49.9201 71.0408 50.2001V54.0895C66.737 54.3868 63.3262 57.9826 63.3262 62.3607C63.3262 64.4395 64.0953 66.342 65.3637 67.7988L62.611 70.5516C61.0691 69.4058 58.8736 69.5314 57.4756 70.9293C55.939 72.466 55.939 74.9662 57.4756 76.5028C58.2439 77.271 59.2532 77.6552 60.2624 77.6552C61.2716 77.6552 62.2808 77.271 63.0491 76.5028C64.4471 75.1048 64.5727 72.9094 63.4269 71.3674L66.1797 68.6147C67.6365 69.8831 69.539 70.6523 71.6177 70.6523C73.6965 70.6523 75.599 69.8831 77.0558 68.6146L79.8085 71.3674C78.6626 72.9093 78.7883 75.1048 80.1862 76.5028C80.9545 77.271 81.9638 77.6552 82.973 77.6552C83.9823 77.6552 84.9915 77.271 85.7598 76.5028C87.2965 74.9663 87.2965 72.4661 85.76 70.9294ZM62.2333 75.687C61.1465 76.7738 59.3783 76.7738 58.2915 75.687C57.2048 74.6002 57.2048 72.832 58.2915 71.7453C58.8349 71.2019 59.5486 70.9302 60.2624 70.9302C60.976 70.9302 61.69 71.202 62.2333 71.7453C63.32 72.832 63.32 74.6002 62.2333 75.687ZM68.8306 46.3017C68.8306 44.7649 70.0809 43.5145 71.6178 43.5145C73.1547 43.5145 74.405 44.7649 74.405 46.3017C74.405 47.8386 73.1547 49.0888 71.6178 49.0888C70.0809 49.0888 68.8306 47.8386 68.8306 46.3017ZM71.6178 69.4985C67.682 69.4985 64.4801 66.2964 64.4801 62.3607C64.4801 58.4249 67.6821 55.223 71.6178 55.223C75.5535 55.223 78.7555 58.425 78.7555 62.3607C78.7555 66.2965 75.5536 69.4985 71.6178 69.4985ZM84.944 75.687C83.8573 76.7738 82.0891 76.7738 81.0023 75.687C79.9156 74.6002 79.9156 72.832 81.0023 71.7453C82.0891 70.6585 83.8573 70.6585 84.944 71.7453C86.0308 72.832 86.0308 74.6002 84.944 75.687Z" fill="#4A4D52"/>
<path d="M72.1947 45.6675H71.0408V46.936H72.1947V45.6675Z" fill="#4A4D52"/>
<path d="M72.1947 77.7853H71.0408V79.0538H72.1947V77.7853Z" fill="#4A4D52"/>
<path d="M60.8393 50.3715H59.6855V51.64H60.8393V50.3715Z" fill="#4A4D52"/>
<path d="M60.8393 73.0815H59.6855V74.35H60.8393V73.0815Z" fill="#4A4D52"/>
<path d="M56.1357 61.7261H54.9819V62.9946H56.1357V61.7261Z" fill="#4A4D52"/>
<path d="M83.5501 50.3715H82.3962V51.64H83.5501V50.3715Z" fill="#4A4D52"/>
<path d="M83.5501 73.0815H82.3962V74.35H83.5501V73.0815Z" fill="#4A4D52"/>
<path d="M88.254 61.7261H87.1001V62.9946H88.254V61.7261Z" fill="#4A4D52"/>
</g>
<defs>
<filter id="filter0_d" x="0.935226" y="0.130066" width="133.637" height="135.247" filterUnits="userSpaceOnUse" color-interpolation-filters="sRGB">
<feFlood flood-opacity="0" result="BackgroundImageFix"/>
<feColorMatrix in="SourceAlpha" type="matrix" values="0 0 0 0 0 0 0 0 0 0 0 0 0 0 0 0 0 0 127 0"/>
<feOffset dy="4"/>
<feGaussianBlur stdDeviation="25"/>
<feColorMatrix type="matrix" values="0 0 0 0 0 0 0 0 0 0.297908 0 0 0 0 0.441667 0 0 0 0.08 0"/>
<feBlend mode="normal" in2="BackgroundImageFix" result="effect1_dropShadow"/>
<feBlend mode="normal" in="SourceGraphic" in2="effect1_dropShadow" result="shape"/>
</filter>
</defs>
</svg>
