<svg width="135" height="136" viewBox="0 0 135 136" fill="none" xmlns="http://www.w3.org/2000/svg">
<g filter="url(#filter0_d)">
<path d="M56.4989 66.9877C52.7468 63.1819 54.4716 56.7448 59.6239 55.3249L74.1369 51.3253C79.3532 49.8878 84.1585 54.6591 82.7581 59.8855L78.814 74.6053C77.4136 79.8317 70.8663 81.5611 67.0677 77.708L56.4989 66.9877Z" fill="#A4E1FF"/>
</g>
<g clip-path="url(#clip0)">
<path d="M73.452 45.1197V43.0398H68.3271V41.9999H61.2003V43.0398H55.7551V47.9795H53.0005V60.2225C53.0005 63.4999 55.2081 66.2633 58.1935 67.0646V81.9999H72.8075V66.6989C75.2593 65.6006 76.9755 63.1117 76.9755 60.2223V56.9001H78.0005V45.1197H73.452ZM68.327 44.4861H72.0265V55.4541H68.327V44.4861ZM62.6256 43.4461H66.9016V55.454H62.6256V54.3004H66.149V47.9795H62.6256V43.4461ZM57.1805 44.4861H61.2002V47.9795H57.1805V44.4861ZM75.5499 60.2224C75.5499 63.3274 73.0602 65.8533 69.9999 65.8533V67.2996C70.473 67.2996 70.9351 67.2511 71.3819 67.1596V80.5535H59.6188V67.2904C59.737 67.2965 59.856 67.2996 59.9757 67.2996H60.8239V65.8532H59.9757C56.9154 65.8532 54.4257 63.3272 54.4257 60.2223V49.4258H64.7235V52.8542H59.022V56.9582C58.7802 56.9405 58.5653 56.9296 58.3859 56.9233L58.3368 58.3687C58.7232 58.3822 59.2461 58.4152 59.8385 58.4911C60.8012 58.6145 61.948 58.8517 62.9933 59.305C64.9504 60.1538 65.9018 61.4483 65.9018 63.2629H67.3272C67.3272 62.0893 67.0251 61.1332 66.5295 60.3528C68.0459 59.822 69.66 59.6836 70.5839 59.6514L70.5348 58.206C69.4168 58.2451 67.3729 58.4286 65.5238 59.1919C64.0913 57.9435 62.067 57.3776 60.4475 57.1222V54.3004H61.2001V56.9002H75.5497L75.5499 60.2224ZM76.5749 55.4541H73.452V46.566H76.5749V55.4541Z" fill="#4A4D52"/>
<path d="M68.8003 65.8536H67.3476V67.2999H68.8003V65.8536Z" fill="#4A4D52"/>
<path d="M57.2346 56.9167H55.7414V58.3629H57.2346V56.9167Z" fill="#4A4D52"/>
<path d="M66.1493 70.8954H64.7239V77.4446H66.1493V70.8954Z" fill="#4A4D52"/>
<path d="M85 51H86V52H85V51Z" fill="#4A4D52"/>
<path d="M82 42H83V43H82V42Z" fill="#4A4D52"/>
<path d="M76 42H77V43H76V42Z" fill="#4A4D52"/>
<path d="M61 40H62V41H61V40Z" fill="#4A4D52"/>
<path d="M70 38H71V39H70V38Z" fill="#4A4D52"/>
<path d="M75 69H76V70H75V69Z" fill="#4A4D52"/>
<path d="M82 63H83V64H82V63Z" fill="#4A4D52"/>
</g>
<mask id="mask0" mask-type="alpha" maskUnits="userSpaceOnUse" x="50" y="46" width="35" height="36">
<path d="M56.4989 66.9877C52.7468 63.1819 54.4716 56.7448 59.6239 55.3249L74.1369 51.3253C79.3532 49.8878 84.1585 54.6591 82.7581 59.8855L78.814 74.6053C77.4136 79.8317 70.8663 81.5611 67.0677 77.708L56.4989 66.9877Z" fill="#19B6FF"/>
</mask>
<g mask="url(#mask0)">
<path d="M73.452 45.1197V43.0398H68.3271V41.9999H61.2002V43.0398H55.7551V47.9795H53.0004V60.2225C53.0004 63.4999 55.208 66.2633 58.1935 67.0646V81.9999H72.8075V66.6989C75.2593 65.6006 76.9754 63.1117 76.9754 60.2223V56.9001H78.0004V45.1197H73.452ZM68.327 44.4861H72.0265V55.4541H68.327V44.4861ZM62.6256 43.4461H66.9016V55.454H62.6256V54.3004H66.149V47.9795H62.6256V43.4461ZM57.1804 44.4861H61.2002V47.9795H57.1804V44.4861ZM75.5499 60.2224C75.5499 63.3274 73.0602 65.8533 69.9999 65.8533V67.2996C70.4729 67.2996 70.9351 67.2511 71.3818 67.1596V80.5535H59.6187V67.2904C59.737 67.2965 59.856 67.2996 59.9757 67.2996H60.8238V65.8532H59.9757C56.9154 65.8532 54.4257 63.3272 54.4257 60.2223V49.4258H64.7235V52.8542H59.022V56.9582C58.7802 56.9405 58.5653 56.9296 58.3858 56.9233L58.3368 58.3687C58.7232 58.3822 59.2461 58.4152 59.8385 58.4911C60.8012 58.6145 61.948 58.8517 62.9932 59.305C64.9504 60.1538 65.9017 61.4483 65.9017 63.2629H67.3272C67.3272 62.0893 67.0251 61.1332 66.5295 60.3528C68.0458 59.822 69.66 59.6836 70.5838 59.6514L70.5348 58.206C69.4168 58.2451 67.3728 58.4286 65.5238 59.1919C64.0913 57.9435 62.067 57.3776 60.4474 57.1222V54.3004H61.2001V56.9002H75.5497L75.5499 60.2224ZM76.5749 55.4541H73.452V46.566H76.5749V55.4541Z" fill="#4A4D52"/>
<path d="M68.8002 65.8536H67.3476V67.2999H68.8002V65.8536Z" fill="#4A4D52"/>
<path d="M57.2346 56.9167H55.7414V58.3629H57.2346V56.9167Z" fill="#4A4D52"/>
<path d="M66.1493 70.8954H64.7239V77.4446H66.1493V70.8954Z" fill="#4A4D52"/>
</g>
<defs>
<filter id="filter0_d" x="0.935669" y="0.130005" width="133.637" height="135.247" filterUnits="userSpaceOnUse" color-interpolation-filters="sRGB">
<feFlood flood-opacity="0" result="BackgroundImageFix"/>
<feColorMatrix in="SourceAlpha" type="matrix" values="0 0 0 0 0 0 0 0 0 0 0 0 0 0 0 0 0 0 127 0"/>
<feOffset dy="4"/>
<feGaussianBlur stdDeviation="25"/>
<feColorMatrix type="matrix" values="0 0 0 0 0 0 0 0 0 0.297908 0 0 0 0 0.441667 0 0 0 0.08 0"/>
<feBlend mode="normal" in2="BackgroundImageFix" result="effect1_dropShadow"/>
<feBlend mode="normal" in="SourceGraphic" in2="effect1_dropShadow" result="shape"/>
</filter>
<clipPath id="clip0">
<rect width="35.9626" height="33.88" fill="white" transform="translate(63.1821 26.9999) rotate(41.6194)"/>
</clipPath>
</defs>
</svg>
