<svg width="20" height="20" viewBox="0 0 20 20" fill="none" xmlns="http://www.w3.org/2000/svg">
<path fill-rule="evenodd" clip-rule="evenodd" d="M10 0C4.47715 0 0 4.47715 0 10C0 15.5228 4.47715 20 10 20C15.5228 20 20 15.5228 20 10C20 4.47715 15.5228 0 10 0ZM14.1674 6.56223C14.6263 6.68817 14.9878 7.05926 15.1105 7.53052C15.3334 8.38461 15.3334 10.1667 15.3334 10.1667C15.3334 10.1667 15.3334 11.9487 15.1105 12.8028C14.9878 13.2741 14.6263 13.6452 14.1674 13.7712C13.3356 14 10 14 10 14C10 14 6.66445 14 5.83263 13.7712C5.37366 13.6452 5.01221 13.2741 4.88954 12.8028C4.66669 11.9487 4.66669 10.1667 4.66669 10.1667C4.66669 10.1667 4.66669 8.38461 4.88954 7.53052C5.01221 7.05926 5.37366 6.68817 5.83263 6.56223C6.66445 6.33334 10 6.33334 10 6.33334C10 6.33334 13.3356 6.33334 14.1674 6.56223Z" fill="#00ACFF"/>
<path class="soc-icon" fill-rule="evenodd" clip-rule="evenodd" d="M9 12V9L12 10.5001L9 12Z" fill="#00ACFF"/>
</svg>
