<svg width="20" height="20" viewBox="0 0 20 20" fill="none" xmlns="http://www.w3.org/2000/svg">
<path class="soc-icon" fill-rule="evenodd" clip-rule="evenodd" d="M10 0C4.47715 0 0 4.47715 0 10C0 15.5228 4.47715 20 10 20C15.5228 20 20 15.5228 20 10C20 4.47715 15.5228 0 10 0ZM10.8142 13.1567C10.7156 13.2607 10.5231 13.2817 10.5231 13.2817H9.88561C9.88561 13.2817 8.47909 13.3646 7.24003 12.0987C5.88881 10.7176 4.69567 7.97729 4.69567 7.97729C4.69567 7.97729 4.6268 7.79754 4.70141 7.711C4.7854 7.61319 5.01443 7.60704 5.01443 7.60704L6.53834 7.59731C6.53834 7.59731 6.68181 7.62036 6.78458 7.69461C6.86962 7.75606 6.9171 7.87026 6.9171 7.87026C6.9171 7.87026 7.16334 8.48172 7.48941 9.03479C8.12641 10.1148 8.42274 10.3509 8.63873 10.2352C8.95384 10.0667 8.85941 8.70858 8.85941 8.70858C8.85941 8.70858 8.86515 8.21593 8.70081 7.99624C8.57352 7.82622 8.33353 7.77655 8.22762 7.76272C8.14154 7.75145 8.2824 7.55583 8.465 7.46826C8.73942 7.33665 9.22356 7.32897 9.79588 7.3346C10.2419 7.33921 10.3703 7.36635 10.5445 7.40783C10.9489 7.50362 10.9363 7.81062 10.9091 8.47319C10.9009 8.67134 10.8915 8.9013 10.8915 9.16691C10.8915 9.2266 10.8897 9.29023 10.8879 9.35569C10.8784 9.69513 10.8676 10.0838 11.0954 10.2285C11.2123 10.3023 11.4977 10.2393 12.2119 9.04913C12.5505 8.48479 12.804 7.82161 12.804 7.82161C12.804 7.82161 12.8599 7.70332 12.9459 7.65262C13.0341 7.60089 13.1531 7.61677 13.1531 7.61677L14.7568 7.60704C14.7568 7.60704 15.2388 7.5502 15.3166 7.76426C15.3985 7.98805 15.1366 8.51142 14.4813 9.36868C13.8598 10.1821 13.5573 10.4816 13.585 10.7464C13.6053 10.94 13.8019 11.115 14.1793 11.4586C14.9669 12.1764 15.1781 12.5541 15.2288 12.6448C15.233 12.6524 15.2361 12.6579 15.2383 12.6615C15.5915 13.2366 14.8465 13.2817 14.8465 13.2817L13.4217 13.3011C13.4217 13.3011 13.116 13.3605 12.7133 13.0891C12.5023 12.9471 12.2961 12.7151 12.0998 12.4941C11.7999 12.1566 11.5228 11.8448 11.2864 11.9185C10.8894 12.0424 10.9014 12.8817 10.9014 12.8817C10.9014 12.8817 10.9045 13.0615 10.8142 13.1567Z" fill="#00ACFF"/>
</svg>
