<svg width="28" height="24" viewBox="0 0 28 24" fill="none" xmlns="http://www.w3.org/2000/svg">
<g filter="url(#filter0_d)">
<path d="M21 11.3333C21 11.6256 20.9137 11.8966 20.7754 12.135L16.355 7.42472L20.7275 3.78138C20.8975 4.03845 21 4.34042 21 4.66674V11.3333ZM14 8.27996L20.0841 3.21C19.8345 3.07983 19.5533 3 19.25 3H8.74999C8.44634 3 8.1651 3.07983 7.91644 3.21L14 8.27996ZM15.6962 7.97324L14.2879 9.14754C14.2055 9.21588 14.103 9.25001 14 9.25001C13.897 9.25001 13.7944 9.21588 13.7121 9.14754L12.3034 7.97318L7.82714 12.7436C8.09545 12.904 8.40989 13 8.74996 13H19.25C19.59 13 19.9046 12.904 20.1729 12.7436L15.6962 7.97324ZM7.27261 3.78135C7.10255 4.03842 7 4.34039 7 4.66674V11.3333C7 11.6256 7.08593 11.8966 7.22474 12.135L11.6446 7.42392L7.27261 3.78135Z" fill="#00ACFF"/>
</g>
<defs>
<filter id="filter0_d" x="0" y="0" width="28" height="24" filterUnits="userSpaceOnUse" color-interpolation-filters="sRGB">
<feFlood flood-opacity="0" result="BackgroundImageFix"/>
<feColorMatrix in="SourceAlpha" type="matrix" values="0 0 0 0 0 0 0 0 0 0 0 0 0 0 0 0 0 0 127 0"/>
<feOffset dy="4"/>
<feGaussianBlur stdDeviation="3.5"/>
<feColorMatrix type="matrix" values="0 0 0 0 0 0 0 0 0 0.67451 0 0 0 0 1 0 0 0 0.3 0"/>
<feBlend mode="normal" in2="BackgroundImageFix" result="effect1_dropShadow"/>
<feBlend mode="normal" in="SourceGraphic" in2="effect1_dropShadow" result="shape"/>
</filter>
</defs>
</svg>
