<svg width="12" height="10" viewBox="0 0 12 10" fill="none" xmlns="http://www.w3.org/2000/svg">
<path d="M0.211956 4.79496L2.977 5.78271L4.04724 9.07701C4.11572 9.288 4.38528 9.36598 4.5642 9.22598L6.10548 8.02337C6.26704 7.89738 6.49716 7.8911 6.666 8.0084L9.44593 9.94014C9.63733 10.0733 9.90849 9.97291 9.95649 9.75155L11.9929 0.375937C12.0453 0.134129 11.7971 -0.0675933 11.5565 0.0214573L0.208716 4.21139C-0.0713247 4.31476 -0.0688847 4.69424 0.211956 4.79496ZM3.87476 5.25691L9.27869 2.07134C9.37581 2.01426 9.47573 2.13995 9.39233 2.21399L4.93252 6.18183C4.77576 6.3215 4.67464 6.5084 4.646 6.71127L4.49408 7.78884C4.47396 7.93271 4.2628 7.94699 4.22132 7.80775L3.63704 5.84278C3.57012 5.61866 3.66764 5.37927 3.87476 5.25691Z" fill="white"/>
</svg>
