<svg width="9" height="9" viewBox="0 0 9 9" fill="none" xmlns="http://www.w3.org/2000/svg">
<path d="M7.68199 5.81801C7.19186 5.32789 6.60848 4.96506 5.97197 4.74543C6.65369 4.2759 7.10156 3.4901 7.10156 2.60156C7.10156 1.16706 5.9345 0 4.5 0C3.0655 0 1.89844 1.16706 1.89844 2.60156C1.89844 3.4901 2.34631 4.2759 3.02804 4.74543C2.39154 4.96506 1.80816 5.32789 1.31803 5.81801C0.468088 6.66796 0 7.79801 0 9H0.703125C0.703125 6.90639 2.40639 5.20312 4.5 5.20312C6.59361 5.20312 8.29688 6.90639 8.29688 9H9C9 7.79801 8.53191 6.66796 7.68199 5.81801ZM4.5 4.5C3.45321 4.5 2.60156 3.64838 2.60156 2.60156C2.60156 1.55475 3.45321 0.703125 4.5 0.703125C5.54679 0.703125 6.39844 1.55475 6.39844 2.60156C6.39844 3.64838 5.54679 4.5 4.5 4.5Z" fill="#919191"/>
</svg>
