<svg width="20" height="20" viewBox="0 0 20 20" fill="none" xmlns="http://www.w3.org/2000/svg">
<path fill-rule="evenodd" clip-rule="evenodd" d="M10 0C4.47715 0 0 4.47715 0 10C0 15.5228 4.47715 20 10 20C15.5228 20 20 15.5228 20 10C20 4.47715 15.5228 0 10 0ZM7.70978 4.47803C8.30238 4.45107 8.49173 4.44447 10.0005 4.44447H9.99881C11.5081 4.44447 11.6967 4.45107 12.2893 4.47803C12.8808 4.50512 13.2847 4.59875 13.6389 4.73614C14.0046 4.87792 14.3137 5.06773 14.6227 5.37676C14.9317 5.68556 15.1215 5.99551 15.2639 6.3609C15.4005 6.71415 15.4942 7.11785 15.522 7.70928C15.5486 8.30188 15.5556 8.49123 15.5556 10C15.5556 11.5088 15.5486 11.6977 15.522 12.2903C15.4942 12.8815 15.4005 13.2853 15.2639 13.6387C15.1215 14.004 14.9317 14.3139 14.6227 14.6227C14.314 14.9317 14.0045 15.122 13.6392 15.2639C13.2858 15.4013 12.8816 15.4949 12.2902 15.522C11.6976 15.549 11.5088 15.5556 9.99985 15.5556C8.49115 15.5556 8.30192 15.549 7.70932 15.522C7.11799 15.4949 6.71417 15.4013 6.36069 15.2639C5.99553 15.122 5.68557 14.9317 5.37689 14.6227C5.06797 14.3139 4.87815 14.004 4.73614 13.6386C4.59887 13.2853 4.50523 12.8816 4.47803 12.2902C4.45118 11.6976 4.44447 11.5088 4.44447 10C4.44447 8.49123 4.45141 8.30176 4.47792 7.70917C4.50454 7.11796 4.59829 6.71415 4.73602 6.36079C4.87839 5.99551 5.0682 5.68556 5.37723 5.37676C5.68603 5.06785 5.99599 4.87803 6.36139 4.73614C6.71463 4.59875 7.11834 4.50512 7.70978 4.47803Z" fill="#00ACFF"/>
<path class="soc-icon" fill-rule="evenodd" clip-rule="evenodd" d="M9.51381 5.55702C9.60825 5.55687 9.70984 5.55692 9.81947 5.55697L10.0002 5.55702C11.4477 5.55702 11.6193 5.56222 12.1909 5.5882C12.7195 5.61237 13.0064 5.70071 13.1975 5.77492C13.4505 5.8732 13.6309 5.99068 13.8205 6.18046C14.0103 6.37023 14.1277 6.55097 14.2262 6.80401C14.3004 6.99492 14.3889 7.28184 14.4129 7.8105C14.4389 8.38209 14.4446 8.5538 14.4446 10.0008C14.4446 11.4479 14.4389 11.6196 14.4129 12.1912C14.3888 12.7198 14.3004 13.0068 14.2262 13.1977C14.128 13.4507 14.0103 13.6309 13.8205 13.8205C13.6308 14.0103 13.4506 14.1278 13.1975 14.2261C13.0066 14.3006 12.7195 14.3887 12.1909 14.4129C11.6194 14.4389 11.4477 14.4446 10.0002 14.4446C8.55251 14.4446 8.38094 14.4389 7.80943 14.4129C7.28083 14.3885 6.99394 14.3002 6.80272 14.226C6.54972 14.1277 6.369 14.0102 6.17925 13.8204C5.9895 13.6307 5.87203 13.4504 5.77354 13.1972C5.69933 13.0063 5.6109 12.7194 5.58684 12.1907C5.56086 11.6191 5.55566 11.4474 5.55566 9.99949C5.55566 8.55154 5.56086 8.38074 5.58684 7.80915C5.61101 7.28049 5.69933 6.99356 5.77354 6.80243C5.87181 6.54939 5.9895 6.36865 6.17925 6.17888C6.369 5.9891 6.54972 5.87162 6.80272 5.77312C6.99383 5.69856 7.28083 5.61045 7.80943 5.58616C8.30956 5.56357 8.50338 5.55679 9.51381 5.55566V5.55702ZM12.8475 6.51342C12.4942 6.51342 12.2075 6.79975 12.2075 7.1532C12.2075 7.50654 12.4942 7.79321 12.8475 7.79321C13.2008 7.79321 13.4875 7.50654 13.4875 7.1532C13.4875 6.79986 13.2008 6.51342 12.8475 6.51342ZM7.22231 10.0004C7.22231 8.46622 8.4661 7.22237 10.0002 7.22231C11.5344 7.22231 12.7779 8.46618 12.7779 10.0004C12.7779 11.5346 11.5345 12.7779 10.0003 12.7779C8.46616 12.7779 7.22231 11.5346 7.22231 10.0004Z" fill="#00ACFF"/>
<path fill-rule="evenodd" clip-rule="evenodd" d="M10 8C11.1045 8 12 8.89538 12 10C12 11.1045 11.1045 12 10 12C8.89538 12 8 11.1045 8 10C8 8.89538 8.89538 8 10 8Z" fill="#00ACFF"/>
</svg>
