<svg width="28" height="33" viewBox="0 0 28 33" fill="none" xmlns="http://www.w3.org/2000/svg">
<g filter="url(#filter0_d)">
<path d="M13.9997 3C10.1403 3 7 6.13802 7 9.99511C7 11.0012 7.20607 11.9618 7.61217 12.8504C9.36229 16.6773 12.7178 20.7178 13.7047 21.8649C13.7787 21.9506 13.8865 22 13.9999 22C14.1133 22 14.2211 21.9506 14.2951 21.8649C15.2817 20.718 18.6371 16.6777 20.3878 12.8504C20.7941 11.9618 21 11.0012 21 9.99511C20.9996 6.13802 17.8594 3 13.9997 3ZM13.9997 13.6284C11.9949 13.6284 10.3636 11.9983 10.3636 9.99491C10.3636 7.99131 11.9949 6.36125 13.9997 6.36125C16.0045 6.36125 17.6358 7.99131 17.6358 9.99491C17.636 11.9983 16.0047 13.6284 13.9997 13.6284Z" fill="#00ACFF"/>
</g>
<defs>
<filter id="filter0_d" x="0" y="0" width="28" height="33" filterUnits="userSpaceOnUse" color-interpolation-filters="sRGB">
<feFlood flood-opacity="0" result="BackgroundImageFix"/>
<feColorMatrix in="SourceAlpha" type="matrix" values="0 0 0 0 0 0 0 0 0 0 0 0 0 0 0 0 0 0 127 0"/>
<feOffset dy="4"/>
<feGaussianBlur stdDeviation="3.5"/>
<feColorMatrix type="matrix" values="0 0 0 0 0 0 0 0 0 0.67451 0 0 0 0 1 0 0 0 0.3 0"/>
<feBlend mode="normal" in2="BackgroundImageFix" result="effect1_dropShadow"/>
<feBlend mode="normal" in="SourceGraphic" in2="effect1_dropShadow" result="shape"/>
</filter>
</defs>
</svg>
