<svg width="24" height="24" viewBox="0 0 24 24" fill="none" xmlns="http://www.w3.org/2000/svg">
<g filter="url(#filter0_d)">
<path d="M16.7758 10.9098L15.2315 9.36175C14.9239 9.05468 14.4145 9.06401 14.0961 9.38317L13.3181 10.1628C13.2689 10.1357 13.2181 10.1073 13.1646 10.0772C12.6732 9.80435 12.0008 9.43036 11.2931 8.72061C10.5834 8.00936 10.2099 7.33433 9.93686 6.84157C9.90805 6.78937 9.88044 6.73904 9.85318 6.69124L10.3754 6.16865L10.6321 5.91102C10.9509 5.59141 10.9597 5.081 10.6528 4.77304L9.10845 3.22485C8.80157 2.91733 8.29194 2.92666 7.97313 3.24628L7.53788 3.68502L7.54977 3.69685C7.40383 3.8835 7.28187 4.09876 7.19112 4.3309C7.10746 4.55187 7.05537 4.76273 7.03155 4.97403C6.82763 6.6684 7.60017 8.21694 9.69672 10.3183C12.5948 13.2227 14.9302 13.0033 15.031 12.9926C15.2504 12.9663 15.4607 12.9137 15.6745 12.8306C15.9041 12.7407 16.1187 12.6186 16.3048 12.4726L16.3143 12.4811L16.7552 12.0484C17.0734 11.7288 17.0826 11.2182 16.7758 10.9098Z" fill="white"/>
</g>
<defs>
<filter id="filter0_d" x="0" y="0.000244141" width="24" height="24" filterUnits="userSpaceOnUse" color-interpolation-filters="sRGB">
<feFlood flood-opacity="0" result="BackgroundImageFix"/>
<feColorMatrix in="SourceAlpha" type="matrix" values="0 0 0 0 0 0 0 0 0 0 0 0 0 0 0 0 0 0 127 0"/>
<feOffset dy="4"/>
<feGaussianBlur stdDeviation="3.5"/>
<feColorMatrix type="matrix" values="0 0 0 0 0 0 0 0 0 0.67451 0 0 0 0 1 0 0 0 0.3 0"/>
<feBlend mode="normal" in2="BackgroundImageFix" result="effect1_dropShadow"/>
<feBlend mode="normal" in="SourceGraphic" in2="effect1_dropShadow" result="shape"/>
</filter>
</defs>
</svg>
