<svg width="14" height="12" viewBox="0 0 14 12" fill="none" xmlns="http://www.w3.org/2000/svg">
<path d="M0.28567 6.62097L5.3958 11.6624C5.76097 12.0223 6.3532 12.0223 6.71836 11.6624C7.08361 11.3025 7.08361 10.719 6.71836 10.359L3.20469 6.8909L13.064 6.8909C13.5805 6.8909 13.9992 6.47822 13.9992 5.96924C13.9992 5.46034 13.5805 5.04758 13.064 5.04758L3.20469 5.04758L6.71821 1.57949C7.08346 1.21953 7.08346 0.636008 6.71821 0.276045C6.53567 0.0962105 6.29626 0.00610924 6.05693 0.00610924C5.8176 0.00610924 5.57827 0.0962105 5.39565 0.276045L0.28567 5.31752C-0.0795727 5.67748 -0.0795727 6.261 0.28567 6.62097Z" fill="black"/>
</svg>
