<svg width="14" height="12" viewBox="0 0 14 12" fill="none" xmlns="http://www.w3.org/2000/svg">
<path d="M13.7143 5.37903L8.6042 0.337559C8.23903 -0.0223301 7.6468 -0.0223301 7.28164 0.337559C6.91639 0.697522 6.91639 1.28104 7.28164 1.64101L10.7953 5.1091L0.93597 5.1091C0.419528 5.1091 0.000793457 5.52178 0.000793457 6.03076C0.000793457 6.53966 0.419528 6.95242 0.93597 6.95242L10.7953 6.95242L7.28179 10.4205C6.91654 10.7805 6.91654 11.364 7.28179 11.724C7.46433 11.9038 7.70374 11.9939 7.94307 11.9939C8.1824 11.9939 8.42173 11.9038 8.60435 11.724L13.7143 6.68248C14.0796 6.32252 14.0796 5.739 13.7143 5.37903Z" fill="black"/>
</svg>
