<svg width="49" height="49" fill="none" xmlns="http://www.w3.org/2000/svg"><circle cx="24.5" cy="24.5" r="23.5" stroke="#323232" stroke-width="2"/><path d="M32.062 19.715a9.038 9.038 0 00.343-7.165.753.753 0 00-.252-.359.795.795 0 00-.856-.081.768.768 0 00-.32.304c-.991 1.714-3.122 4.477-4.683 4.606h-.07a13.005 13.005 0 00-2.177-.227c-.734.014-1.465.09-2.185.227h-.055c-1.56-.121-3.723-2.884-4.721-4.598a.766.766 0 00-.319-.325.802.802 0 00-.88.078.753.753 0 00-.253.375 8.996 8.996 0 00.304 7.157c-1.358.167-3.082.59-3.707 1.654a1.613 1.613 0 000 1.66c.179.31.445.562.767.73a1.99 1.99 0 001.052.215 5.679 5.679 0 001.888-.363 6.36 6.36 0 00.102 1.216 25.84 25.84 0 001.365 3.926c.149.354.313.755.398.996a10.96 10.96 0 00-.6 1.873c-.037.452.02.906.171 1.336.15.43.39.825.703 1.162C19.208 35.366 21.198 36 24.023 36c2.826 0 4.823-.634 5.947-1.888.315-.336.555-.731.705-1.161.15-.43.208-.885.17-1.337-.142-.64-.34-1.267-.594-1.873.086-.241.25-.634.39-.996a24.462 24.462 0 001.366-3.926c.079-.4.116-.808.11-1.216.582.22 1.2.343 1.826.363a1.99 1.99 0 001.054-.216c.323-.167.591-.42.772-.728a1.613 1.613 0 000-1.661c-.617-1.027-2.341-1.48-3.707-1.646zm-.742-5.013a6.947 6.947 0 01-.78 4.613 8.303 8.303 0 00-.624-.657 5.617 5.617 0 00-1.491-.951 13.014 13.014 0 002.895-3.005zm-14.601 0a12.717 12.717 0 002.887 3.02 5.114 5.114 0 00-1.475.951 7.978 7.978 0 00-.632.657 6.961 6.961 0 01-.78-4.628zm-3.075 7.595c-.07-.12-.047-.158 0-.189.18-.294 1.085-.755 2.817-.928a9.617 9.617 0 00-.234.664c-1.014.506-2.373.823-2.583.453zm16.826 2.265a24.983 24.983 0 01-1.265 3.631 14.96 14.96 0 00-.538 1.412l-.047.234.086.212c.247.575.448 1.169.6 1.774.01.238-.032.475-.119.698a1.797 1.797 0 01-.387.6c-.562.627-1.842 1.367-4.769 1.367-2.926 0-4.206-.755-4.768-1.367a1.816 1.816 0 01-.507-1.298c.156-.605.36-1.199.608-1.774l.086-.212-.055-.234a11.968 11.968 0 00-.53-1.42 24.316 24.316 0 01-1.28-3.653 5.253 5.253 0 01.212-2.6 5.402 5.402 0 011.442-2.202c1.179-1.147 3.848-1.404 4.777-1.412.928-.007 3.543.257 4.791 1.427a5.334 5.334 0 011.452 2.192 5.18 5.18 0 01.21 2.595v.03zm3.902-2.265c-.203.363-1.561.053-2.529-.445a7.53 7.53 0 00-.226-.672c1.717.173 2.614.634 2.786.928.039.03.055.068-.016.19h-.015z" fill="#323232"/></svg>