<svg width="108" height="39" fill="none" xmlns="http://www.w3.org/2000/svg"><path d="M44.582 28.426a2.13 2.13 0 00.552-.11v1.41a3.193 3.193 0 01-1.18.222 1.58 1.58 0 01-.985-.223 1.72 1.72 0 01-.68-.785 4.716 4.716 0 01-3.142 1.14c-1.513 0-2.912-.878-2.912-2.702 0-2.258 1.98-2.954 3.712-2.954.73.012 1.456.1 2.17.262v-.312c0-1.099-.762-1.875-2.19-1.875a7.03 7.03 0 00-2.997.685V21.37a9.612 9.612 0 013.188-.585c2.36 0 3.807 1.19 3.807 3.86v3.166a.594.594 0 00.122.418.534.534 0 00.535.197zm-6.434-1.21c.029.379.199.73.472.975.273.246.627.366.984.336h.105a3.298 3.298 0 002.408-1.008v-1.522a9.145 9.145 0 00-1.809-.222c-1.047 0-2.16.353-2.16 1.462v-.02zm12.354-6.451a4.83 4.83 0 012.57.675v1.805a3.886 3.886 0 00-2.303-.736 2.652 2.652 0 00-2 .683c-.554.5-.9 1.21-.96 1.979-.06.768.169 1.53.638 2.12.469.589 1.14.957 1.865 1.024.152.01.305.01.457 0 .85 0 1.686-.233 2.427-.675v1.814a5.975 5.975 0 01-2.76.605 3.979 3.979 0 01-1.63-.22 4.147 4.147 0 01-1.425-.865 4.424 4.424 0 01-1.002-1.378 4.65 4.65 0 01-.426-1.68v-.433c-.02-.601.074-1.2.273-1.762.2-.562.503-1.078.891-1.516a4.328 4.328 0 011.372-1.038 4.113 4.113 0 011.642-.402c.123-.01.248-.01.371 0zm12.164 7.661a2.13 2.13 0 00.552-.11v1.41a3.194 3.194 0 01-1.18.222 1.58 1.58 0 01-.985-.223 1.721 1.721 0 01-.68-.785 4.716 4.716 0 01-3.142 1.14c-1.513 0-2.912-.878-2.912-2.702 0-2.258 1.98-2.954 3.712-2.954.73.012 1.456.1 2.17.262v-.312c0-1.099-.761-1.875-2.19-1.875a7.03 7.03 0 00-2.997.685V21.37a9.612 9.612 0 013.188-.585c2.36 0 3.807 1.19 3.807 3.86v3.166a.598.598 0 00.121.418.535.535 0 00.536.197zm-6.434-1.21c.03.379.199.73.472.975.273.246.627.366.984.336h.105a3.298 3.298 0 002.408-1.008v-1.522a9.143 9.143 0 00-1.809-.222c-1.056 0-2.16.353-2.16 1.462v-.02zm16.742-10.251v12.862h-1.675v-1.401a3.94 3.94 0 01-1.408 1.224 3.701 3.701 0 01-1.78.409 4.302 4.302 0 01-2.922-1.464 4.81 4.81 0 01-1.187-3.183 4.81 4.81 0 011.188-3.183 4.302 4.302 0 012.92-1.464 3.624 3.624 0 011.65.346c.52.244.98.608 1.349 1.065v-5.211h1.903-.038zm-4.53 5.524c-.733 0-1.435.308-1.952.856a3.013 3.013 0 00-.809 2.067c0 .775.291 1.519.809 2.067.517.548 1.22.856 1.951.856a2.742 2.742 0 001.595-.5 2.99 2.99 0 001.061-1.355v-2.147a3.037 3.037 0 00-1.069-1.34 2.787 2.787 0 00-1.587-.504zm10.555-1.724c3.312 0 4.454 2.833 3.921 5.383h-6.272c.21 1.582 1.666 2.238 3.188 2.238.912 0 1.813-.213 2.637-.625v1.693a6.802 6.802 0 01-2.989.605c-2.55 0-4.759-1.542-4.759-4.647a4.596 4.596 0 011.074-3.19 4.1 4.1 0 012.886-1.457h.314zm.086 1.633a2.157 2.157 0 00-.883.111 2.244 2.244 0 00-.775.46 2.393 2.393 0 00-.549.74 2.53 2.53 0 00-.24.907v.06h4.617a2.193 2.193 0 00-.072-.807 2.12 2.12 0 00-.358-.716 1.991 1.991 0 00-.59-.517 1.882 1.882 0 00-.732-.238c-.139-.02-.28-.02-.418 0zm5.72-1.391h1.646v1.099a3.83 3.83 0 011.258-.979 3.63 3.63 0 011.522-.362 2.721 2.721 0 011.482.327c.457.249.843.623 1.116 1.084a4.16 4.16 0 011.322-1.016c.5-.242 1.04-.376 1.59-.395.436-.015.869.069 1.271.244.403.176.766.44 1.064.776.299.336.527.735.67 1.17.142.436.195.899.156 1.358v5.514h-1.904v-5.453a1.753 1.753 0 00-.349-1.233 1.567 1.567 0 00-1.07-.612h-.228a2.74 2.74 0 00-1.131.363c-.35.203-.654.481-.896.817v6.118H90.42v-5.453a1.753 1.753 0 00-.348-1.233 1.567 1.567 0 00-1.07-.612h-.228c-.44.038-.868.18-1.25.415-.382.236-.71.559-.958.946v5.947h-1.761v-8.83zm21.291 0H108l-3.902 10.01c-.952 2.298-2.085 3.024-3.351 3.024a5.04 5.04 0 01-1.094-.152v-1.633c.274.089.56.133.847.131.952 0 1.58-.675 2.065-2.016l.172-.443-3.96-8.89h2.027l2.856 6.652 2.436-6.683zM38.7 1.522v5.04c.351-.38.77-.682 1.233-.89a3.626 3.626 0 011.46-.32c.426-.027.853.035 1.256.182a3.21 3.21 0 011.094.677c.319.3.579.663.765 1.07a3.6 3.6 0 01.322 1.67v5.454h-1.904V9.203c.03-.253.013-.51-.052-.756a1.96 1.96 0 00-.325-.676c-.15-.2-.336-.367-.548-.49a1.737 1.737 0 00-.684-.225 1.448 1.448 0 00-.295 0c-.47.03-.927.179-1.33.435a3.021 3.021 0 00-.992 1.037v5.846h-1.904V1.522H38.7zm11.203.898v3.144h3.017v1.724h-3.017v4.032c0 1.16.504 1.542 1.58 1.542.577 0 1.15-.12 1.684-.353v1.694a6.326 6.326 0 01-2.236.383c-.334.045-.672.02-.996-.074a2.499 2.499 0 01-.893-.472 2.663 2.663 0 01-.653-.8 2.81 2.81 0 01-.314-1.003 2.703 2.703 0 010-.554V7.268h-1.523V5.544h1.495V2.883l1.856-.464zM55.3 14.384v-8.82h1.646v1.099c.35-.415.779-.748 1.257-.978a3.63 3.63 0 011.522-.363 2.722 2.722 0 011.483.328c.457.248.842.622 1.115 1.084a4.16 4.16 0 011.323-1.016c.5-.243 1.04-.377 1.59-.396.435-.014.868.069 1.27.245.403.176.766.44 1.065.776.298.335.526.734.669 1.17.142.435.195.898.156 1.358v5.513h-1.904V8.931a1.779 1.779 0 00-.05-.662 1.722 1.722 0 00-.287-.59 1.615 1.615 0 00-.481-.427 1.526 1.526 0 00-.6-.196h-.228c-.4.04-.786.168-1.136.376a2.93 2.93 0 00-.892.834v6.118h-1.903V8.931a1.777 1.777 0 00-.054-.67 1.718 1.718 0 00-.297-.596 1.611 1.611 0 00-.494-.424 1.523 1.523 0 00-.611-.185h-.229c-.44.038-.868.18-1.25.415-.382.236-.71.559-.958.946v5.957h-1.723v.01zM72.974 1.512h-1.856v12.862h1.856V1.512zM14.696 0h-.153L0 1.613v28.224L14.543 39l14.544-9.163V1.613L14.696 0zm12.487 28.678l-12.64 7.963-12.64-7.963V17.136l12.583 7.933v1.442l-8.632-5.444v1.392l8.67 5.513v1.472l-8.66-5.463v1.39l8.67 5.515 8.747-5.545v-5.987l3.902-2.47v11.794zm0-13.266L23.71 17.57l-1.599 1.008-7.614-4.798v1.39l6.51 4.103h-.067l-.142.09-.952.576-5.368-3.387v1.39l4.235 2.672-1 .706-3.197-2.017v1.392l2.103 1.31-2.141 1.36L1.96 15.484 14.496 7.5l12.687 7.912zm0-1.4L14.477 6.047 1.904 14.001V3.417l12.649-1.401 12.64 1.401v10.594h-.01z" fill="#fff"/></svg>