<svg width="154" height="64" fill="none" xmlns="http://www.w3.org/2000/svg"><path d="M59.341 43.15a3.806 3.806 0 00-2.152.38s-3.002 2.58-17.856-.39c-10.92-2.188-16.595-1.962-16.595-1.962s1.832-12.84 1.332-16.436a1.036 1.036 0 00-.342-.686.985.985 0 00-.71-.25c-1.09 0-1.751.432-1.751 1.028a49.9 49.9 0 01-.25 7.273 6.136 6.136 0 01-2.421 3.09 5.884 5.884 0 01-3.755.937c-4.754-.339-5.755-3.852-6.175-6.246-.42-2.393-.66-9.081.59-11.814 0 0 7.167.257 11.67-3.688 4.505-3.944 4.225-7.355 2.093-8.814-2.132-1.459-7.127-1.202-10.96 2.394a19.896 19.896 0 00-5.085 7.19S1.34 13.925 2.63 7.885c1.372-6.308 9.77-5.568 9.77-5.568 1.75.349 1.83.513 2.411-.083.58-.595 1.001-2.136-1.751-2.229C10.307-.088 2.05 1.31.468 6.938-1.223 12.928 1.9 17.211 6.093 17.88c0 0-2.292 10.376.541 15.512a9.05 9.05 0 003.555 3.87 8.723 8.723 0 005.053 1.185c1.651 0 4.574-.945 5.404-2.312 0 0-.39 3.678-.72 5.014 0 0-6.946-.093-9.118 1.027-3.694 2.003-2.923 6.698-1.502 8.362 1.201 1.418 4.815 2.188 7.427.925a10.017 10.017 0 003.757-3.231 10.368 10.368 0 001.798-4.68 38.73 38.73 0 0112.541 1.398c6.176 1.89 14.773 3.657 17.356 3.657 2.582 0 8.007-.76 8.337-2.97.18-1.458-.35-2.218-1.18-2.485zM15.872 8.819s3.283-2.568 4.855-.965c.352.39.556.899.572 1.431a2.245 2.245 0 01-.482 1.466c-.661.883-2.402 3.678-10.67 5.064 0 0 2.602-4.684 5.725-6.996zm.27 39.973s-4.534 2.537-5.004-.904a3.314 3.314 0 01.18-2.153 3.2 3.2 0 011.462-1.556c.79-.4 1.871-.904 6.585-.73a6.614 6.614 0 01-.94 3.098 6.402 6.402 0 01-2.283 2.245z" fill="#FBFCFB"/><path d="M73.644 24.382v7.078a5.877 5.877 0 01-.86 2.6 5.708 5.708 0 01-1.182 1.51c-.53.472-.88-.586-1.08-1.028-1.392-2.99-.722-6.996-.181-10.13.25-1.5-2.712-1.109-2.943.227a31.002 31.002 0 00-.55 8.126 1.836 1.836 0 00-.749.228c-.23.13-.433.307-.592.522-.51 1.12-2.002 4.838-3.834 3.349-1.321-1.028-1.461-3.842-1.601-5.414-.16-2.179.12-4.368.82-6.431-.06.175 1.141-2.907 1.672-1.757.143.549.163 1.123.057 1.68a3.778 3.778 0 01-.668 1.536c-1.571 1.212.871 1.715 1.822.976 1.802-1.387 3.003-5.866-.07-6.4-3.473-.596-5.445 3-6.176 5.855a19.1 19.1 0 00-.5 5.013c-.48.863-2.102 3.637-3.053 4.11-1.12.595-1.1-.237-1.06-.771.04-.534.54-5.29.81-8.496a6.067 6.067 0 00-.5-3.75c-.43-.893-4.004-2.896-7.147.864a12.38 12.38 0 00-3.083 7.19c-.21.432-.44.894-.71 1.398-1.502 2.825-3.393 4.017-4.064 2.054a16.044 16.044 0 01-.75-6.359 40.098 40.098 0 005.064-12.07c1.501-6.842 1.221-10.242.41-10.818-.81-.575-4.253-1.993-6.325 6.42a56.218 56.218 0 00-1.592 18.369 44.92 44.92 0 01-1.23 2.496c-1.502 2.825-3.384 4.017-4.064 2.055a16.045 16.045 0 01-.711-6.36 40.102 40.102 0 005.065-12.07c1.55-6.934 1.24-10.334.43-10.91-.81-.575-4.254-1.993-6.316 6.42-2.062 8.414-2.472 17.588-.5 23.752 0 0 1.08 3.472 3.103 3.215 1.671-.215 3.663-1.9 4.834-5.044.132.618.296 1.229.49 1.829 0 0 1.081 3.472 3.103 3.215 1.371-.174 3.003-1.356 4.144-3.513.71 1.88 2.242 3.431 4.214 3.082 2.672-.493 3.222-1.983 3.222-1.983s-.05 2.445 1.662 2.445c1.521 0 2.732-.914 3.933-3.246.41-.791.651-1.253.781-1.52.35 2.208 1.241 4.17 3.003 4.961 3.002 1.336 5.625-1.202 7.166-3.708.198.604.52 1.157.945 1.622.425.464.943.829 1.517 1.07a3.66 3.66 0 002.022.065 3.729 3.729 0 001.762-1.021v3.616a2.523 2.523 0 00-1.552.431 12.018 12.018 0 00-3.454 4.85 12.322 12.322 0 00-.74 5.958c.043.546.216 1.073.505 1.533.29.46.685.84 1.151 1.106a3.168 3.168 0 003.059.042c3.103-1.387 3.573-6.164 3.833-9.081.63-7.017.14-14.32.14-21.358 0-1.294-2.902-.688-2.902.37zM30.275 12.876c.69-2.722 1.331-3.811 2.002-3.811.67 0 .93.73.46 3.082a61.378 61.378 0 01-4.093 13.098s.94-9.636 1.631-12.369zm8.428 0c.69-2.722 1.33-3.811 1.951-3.811.62 0 .941.73.47 3.082-.47 2.352-2.001 8.855-4.093 13.098 0 0 1.001-9.636 1.672-12.369zm12.871 12.81c-.08.596-.46 4.408-1 6.462-.541 2.055-.912 2.784-2.533 3.493-1.621.709-2.442-1.459-2.442-1.459-1.151-3.287.39-6.163 1.671-8.136 1.281-1.972 2.573-2.147 3.313-2.054.174.044.337.123.48.232.145.11.266.247.358.404a1.418 1.418 0 01.153 1.059zm21.99 18.492c.06 2.762-.48 5.503-1.582 8.023-.7.144-1-.123-1.24-1.274a11.308 11.308 0 010-3.338 9.32 9.32 0 012.782-5.291c.05.647.05 1.274.04 1.88zM92.38 21.475a10.782 10.782 0 01-3.457-2.496 11.107 11.107 0 01-2.258-3.668c-1.28-3.924 2.923-6.821 6.276-6.647 3.353.175 5.145 3.72 5.005 6.893-.06 1.12-.751 3.647-2.102 2.333a6.61 6.61 0 01-1.562-3.73c-.2-1.243-3.102-.503-2.902.802.58 3.76 4.524 7.9 7.907 3.965a7.639 7.639 0 001.424-3.042 7.763 7.763 0 00-.01-3.375 7.63 7.63 0 00-1.441-3.034 7.39 7.39 0 00-2.586-2.086 10.002 10.002 0 00-7.066-.14 10.31 10.31 0 00-5.475 4.589c-2.732 4.982 2.753 9.851 6.636 11.629 6.236 3.42 6.466 14.433-1.822 14.505a8.208 8.208 0 01-4.728-1.644 8.557 8.557 0 01-2.968-4.119c-.57-1.726-.28-7.756 2.001-8.218 1.812-.36 1.322-2.055-.45-1.736-3.713.74-5.085 5.66-4.724 9.101.58 5.486 5.585 8.558 10.64 8.517a9.418 9.418 0 006.184-2.09 9.868 9.868 0 003.454-5.666 9.822 9.822 0 00-1.114-6.43 9.426 9.426 0 00-4.861-4.213z" fill="#FBFCFB"/><path d="M110.977 37.798c-2.852-1.602-1.221-7.776-.79-10.15.28-1.53 1.551-3.893-.491-4.417-2.392-.595-5.235 1.736-7.286 3.966-.002-2.572.182-5.14.55-7.684 3.165-1.621 5.699-4.298 7.186-7.592 1.302-2.671 1.942-8.219-2.462-6.595-4.003 1.438-5.375 6.163-6.626 9.954a31.596 31.596 0 00-1.09 4.49c-.4.171-.807.322-1.222.451-1.661.535-1.441 1.449.24.915l.811-.267c-.8 5.763-.26 11.803.25 17.464 0 .554 3.003 0 2.893-.802-.22-2.527-.41-5.054-.49-7.56.241-.073.459-.212.63-.401a22.873 22.873 0 013.083-3.257c.3-.277.61-.534.921-.78l.46-.35c.671-.544.801-.555.38 0-.156.98-.364 1.95-.62 2.907-.551 3.082-2.132 9.133 1.341 11.075.751.39 3.453-.76 2.332-1.367zm-6.496-24.768c.311-.914.721-1.818 1.101-2.701.471-1.11 1.732-4.9 2.643-3.082.73 1.448-.421 3.821-.931 5.208a12.185 12.185 0 01-4.004 5.445c.292-1.649.69-3.275 1.191-4.87z" fill="#FBFCFB"/><path d="M121.737 30.597c0-3.38-.37-7.715-4.304-8.074-4.314-.401-6.005 4.232-6.065 7.694a.6.6 0 00.35.586c0 3.236.761 7.458 4.514 7.386 4.184-.062 5.505-3.811 5.505-7.592zm-5.005 5.63c-2.442-1.028-2.222-5.352-2.061-7.438a.572.572 0 00-.043-.308.552.552 0 00-.198-.236c.301-2.055 1.081-5.137 2.863-3.606 1.421 1.253 1.451 4.263 1.521 6 .06 1.211-.09 6.348-2.072 5.588h-.01zm36.533 12.913c-1.121-2.959-3.583-4.11-6.296-4.233a11.622 11.622 0 00-1.131-2.136c-3.913-5.949-13.201-5.137-19.497-2.055 0-.935-.09-1.87-.13-2.805a7.152 7.152 0 003.651-.665 7.366 7.366 0 002.865-2.416c1.671-2.456 1.431-6.811.77-9.565-.62-2.588-3.082-2.126-4.934-1.263a7.38 7.38 0 00-1.862 1.294c0-.688.11-1.387.16-2.054.111-1.582-2.842-1.182-2.942.215-.461 6.36-.3 12.698-.441 19.047a15.117 15.117 0 00-4.12 5.556 15.504 15.504 0 00-1.254 6.863c0 2.332 1.931 4.11 4.003 2.445 2.893-2.28 3.774-6.81 4.174-10.273.164-1.545.217-3.1.16-4.653a13.756 13.756 0 017.592-2.355 13.752 13.752 0 017.622 2.252 7.091 7.091 0 012.272 2.774 17.953 17.953 0 00-4.624 1.52c-1.712.843-4.254 2.836-4.134 5.065-.02.705.197 1.396.615 1.957a2.996 2.996 0 001.677 1.125.883.883 0 00.29.092c6.146 1.027 10.72-2.702 9.839-7.951 3.003 1.674 4.114 5.557 3.053 8.896-2.392 7.5-11.601 9.174-16.965 4.16-.581-.533-3.193.597-2.733 1.028 7.747 7.263 27.044.545 22.32-11.865zm-29.967-1.819a16.327 16.327 0 01-1.141 5.28c-.25.566-.52 1.11-.811 1.645 0 0-.26.061-.31-.74a15.08 15.08 0 012.342-8.105c-.02.636-.04 1.284-.08 1.92zm3.133-18.347a.82.82 0 00.15-.175 14.398 14.398 0 011.902-2.578 7.927 7.927 0 011.811-1.562c.321.165.651 1.028.771 2.189.31 2.855.441 10.375-3.943 9.666a2.347 2.347 0 00-1.001.175c-.01-2.61.13-5.157.31-7.715zm13.092 24.388h-.06c-1.682-.41-1.502-2.055-1.281-3.164.49-2.6 3.573-3.996 6.115-4.11 1.291 3.699.3 8.127-4.774 7.274z" fill="#FBFCFB"/></svg>