<svg width="40" height="70" viewBox="0 0 80 140" fill="none" xmlns="http://www.w3.org/2000/svg"><path d="M40.148 7.012a28.755 28.755 0 0114.264 3.779 28.45 28.45 0 0110.455 10.336 28.144 28.144 0 013.856 14.131 28.141 28.141 0 01-3.775 14.153 9.424 9.424 0 014.686 2.068 9.303 9.303 0 012.89 4.201 9.23 9.23 0 01.23 5.08 9.284 9.284 0 01-2.497 4.443 9.406 9.406 0 01-4.48 2.476 9.461 9.461 0 01-5.124-.228 9.388 9.388 0 01-4.237-2.866 9.269 9.269 0 01-2.085-4.646c-.354.2-.717.39-1.081.58a13.135 13.135 0 01-4.501 7.915 13.342 13.342 0 01-8.601 3.137c-3.152 0-6.2-1.112-8.6-3.137a13.135 13.135 0 01-4.502-7.915c-.364-.19-.727-.38-1.08-.58a9.267 9.267 0 01-2.087 4.65 9.387 9.387 0 01-4.241 2.867 9.46 9.46 0 01-5.129.226 9.406 9.406 0 01-4.48-2.484 9.285 9.285 0 01-2.492-4.45 9.23 9.23 0 01.242-5.084 9.303 9.303 0 012.903-4.198 9.423 9.423 0 014.697-2.055 28.142 28.142 0 01-3.775-14.145A28.144 28.144 0 0115.45 21.14a28.448 28.448 0 0110.444-10.338 28.755 28.755 0 0114.253-3.79zm0-7.012a35.876 35.876 0 00-16.143 3.823 35.55 35.55 0 00-12.644 10.659 35.17 35.17 0 00-6.403 15.182 35.043 35.043 0 001.228 16.412A16.255 16.255 0 00.149 56.624a16.183 16.183 0 002.99 11.762 16.443 16.443 0 0010.359 6.45A16.54 16.54 0 0025.48 72.4a20.43 20.43 0 006.717 4.585 20.576 20.576 0 0015.982 0 20.43 20.43 0 006.718-4.585 16.543 16.543 0 0011.842 2.154A16.44 16.44 0 0076.88 68.12a16.183 16.183 0 002.993-11.563 16.25 16.25 0 00-5.764-10.481 35.042 35.042 0 001.228-16.412 35.17 35.17 0 00-6.403-15.182A35.552 35.552 0 0056.29 3.823 35.876 35.876 0 0040.148 0z" fill="#E84D37"/><path d="M63.614 78.94a20.452 20.452 0 01-8.081-1.683c-.374.3-.768.57-1.162.851l.536.521-3.94 3.907-1.687-1.673c-.697.27-1.404.51-2.132.721l2.384 2.364-3.93 3.906-3.959-3.906 1.566-1.553a25.418 25.418 0 01-3.03.2 23.62 23.62 0 01-2.94-.19l1.555 1.543-3.94 3.906-3.939-3.906 2.364-2.344a22.008 22.008 0 01-2.122-.721l-1.697 1.653-3.98-3.907.495-.49c-.414-.291-.818-.572-1.212-.882a20.451 20.451 0 01-8.081 1.683h-.606a3.448 3.448 0 00.161 1.622l20.588 57.214c.022.069.05.136.08.201.028.069.062.136.101.2.071.14.152.27.233.401l.09.13c.125.165.264.319.415.461l.1.08.395.3.182.1c.14.077.285.144.434.201h.111l.404.1h.162c.374.067.757.067 1.131 0h.172l.394-.1h.172a4.12 4.12 0 00.424-.201l.182-.11c.142-.082.274-.179.394-.29l.11-.08a4.49 4.49 0 00.415-.461l.08-.13a3.3 3.3 0 00.243-.401l.182-.401 20.628-57.244c.187-.52.243-1.076.161-1.622-.202 0-.353.03-.606.03zM49.472 94.595l-3.94 3.907-3.889-3.907 3.93-3.906 3.899 3.906zm-13.223 5.32l3.94-3.907 3.939 3.906-3.94 3.907-3.94-3.907zm7.879 10.647l-3.94 3.906-3.94-3.906 3.94-3.907 3.94 3.907zm-3.94-25.192l3.94 3.907-3.94 3.876-3.94-3.906 3.94-3.877zm-1.424 9.225l-3.94 3.907-3.94-3.907 3.94-3.906 3.94 3.906zM23.702 80.432l.384-.38 3.94 3.896-2.253 2.194-2.07-5.71zm2.788 7.843l2.93-2.905 3.93 3.907-3.89 3.876-1.808-1.793-1.162-3.085zm2.86 7.883l.11-.11 3.93 3.906-1.97 2.003-2.07-5.799zm4.212 11.769l-1.435-4.006 2.657-2.625 3.94 3.907-3.9 3.976-1.262-1.252zm3.465 9.636l-1.89-5.228 3.587 3.545-1.697 1.683zm3.08 8.574l-2.333-6.49 2.374-2.354 2.313 2.293-2.353 6.551zm3.112-8.634l-1.576-1.623 3.445-3.425-1.87 5.048zm3.475-9.445l-1.142 1.121-3.909-3.946 3.93-3.897 2.596 2.565-1.475 4.157zm2.242-6.241l-1.909-1.903 3.94-3.906v.05l-2.03 5.759zm3.708-10.307l-1.718 1.643-3.94-3.906 3.94-3.907 2.84 2.875-1.122 3.295zm1.899-5.369l-2.192-2.183 3.94-3.906.323.32-2.071 5.77z" fill="#E84D37"/></svg>