<svg width="32" height="32" fill="none" xmlns="http://www.w3.org/2000/svg"><path d="M16.64 14.49c.325 0 .648-.06.95-.18a1.2 1.2 0 00.64-.56 2 2 0 00.15-.8 1.55 1.55 0 00-.18-.7 1.05 1.05 0 00-.61-.51 3 3 0 00-1-.17h-2v3h.57c.59-.05 1.08-.06 1.48-.08zm1.48 2.59A4.851 4.851 0 0017 17h-2.39v3.5h2.45a3.23 3.23 0 001.21-.25c.321-.11.593-.33.77-.62a1.9 1.9 0 00.22-.9 1.76 1.76 0 00-.26-1 1.6 1.6 0 00-.88-.65z" fill="#fff"/><path d="M16 0a16 16 0 100 32 16 16 0 000-32zm6.6 20.53a3.7 3.7 0 01-1.12 1.33 5.17 5.17 0 01-1.83.88 9.76 9.76 0 01-2.51.27H11V9h5.45a20.61 20.61 0 012.48.11 5.25 5.25 0 011.56.5 2.75 2.75 0 011.19 1.09c.265.473.4 1.008.39 1.55a3.08 3.08 0 01-.54 1.8 3.46 3.46 0 01-1.53 1.2v.07a4 4 0 012.18 1.13 3.2 3.2 0 01.8 2.26 3.841 3.841 0 01-.38 1.82z" fill="#fff"/></svg>