<svg width="9" height="13" viewBox="0 0 9 13" fill="none" xmlns="http://www.w3.org/2000/svg">
<path d="M0.0157563 2.98975C-0.0335586 2.29655 0.121422 1.61371 0.531774 1.0645C0.887529 0.566612 1.35072 0.294697 1.90901 0.135791C2.37924 -0.00261872 2.68745 0.166973 2.82306 0.685638C3.01679 1.46106 3.2933 2.23653 3.39369 3.05299C3.42539 3.41243 3.19115 3.92065 2.93754 4.18239C2.30176 4.80338 2.43385 5.25529 2.91642 6.19517C3.06612 6.49818 3.30388 7.02203 3.76707 7.71543C4.24963 8.41398 4.505 8.78893 5.12493 8.47088C5.81355 8.12719 6.31549 8.34822 6.83503 8.90301C7.18727 9.30368 7.57473 9.64789 7.92696 10.0486C8.43594 10.6444 8.41305 11.0552 8.01502 11.476C7.29823 12.251 6.11472 12.5072 5.23414 11.9882C4.74805 11.7055 4.26373 11.3356 3.87803 10.9041C2.17849 8.98293 0.952711 6.74877 0.214772 4.2273C0.0967725 3.80106 0.042175 3.36973 0.0157563 2.98975Z" fill="white"/>
</svg>
