<svg 
 xmlns="http://www.w3.org/2000/svg"
 xmlns:xlink="http://www.w3.org/1999/xlink"
 width="63px" height="54px">
<path fill-rule="evenodd"  fill="rgb(255, 194, 34)"
 d="M61.979,54.000 L38.031,54.000 C37.468,54.000 37.011,53.542 37.011,52.977 L37.011,50.795 C37.011,49.028 38.445,47.591 40.208,47.591 L41.365,47.591 L41.365,46.432 C41.365,44.665 42.799,43.227 44.563,43.227 L55.448,43.227 C57.211,43.227 58.646,44.665 58.646,46.432 L58.646,47.591 L59.802,47.591 C61.565,47.591 63.000,49.028 63.000,50.795 L63.000,52.977 C63.000,53.542 62.543,54.000 61.979,54.000 ZM56.605,46.432 C56.605,45.793 56.086,45.273 55.448,45.273 L44.563,45.273 C43.925,45.273 43.406,45.793 43.406,46.432 L43.406,47.591 L56.605,47.591 L56.605,46.432 ZM60.959,50.795 C60.959,50.156 60.440,49.636 59.802,49.636 L40.208,49.636 C39.571,49.636 39.052,50.156 39.052,50.795 L39.052,51.954 L60.959,51.954 L60.959,50.795 ZM43.526,30.153 C42.922,30.758 42.119,31.091 41.265,31.091 C40.411,31.091 39.608,30.758 39.004,30.153 C37.757,28.904 37.757,26.871 39.004,25.621 L39.052,25.573 L36.685,23.202 C36.498,23.256 36.302,23.285 36.102,23.285 C35.539,23.285 35.009,23.064 34.611,22.665 L34.337,22.391 L32.221,24.511 C31.598,25.136 30.779,25.448 29.960,25.448 C29.892,25.448 29.825,25.443 29.757,25.439 L5.459,49.789 C4.855,50.393 4.052,50.727 3.198,50.727 C2.343,50.727 1.540,50.393 0.937,49.789 C0.333,49.183 -0.000,48.379 -0.000,47.523 C-0.000,46.667 0.333,45.862 0.937,45.257 L25.235,20.907 C25.179,20.020 25.485,19.114 26.160,18.437 L28.276,16.317 L28.002,16.043 C27.604,15.644 27.385,15.113 27.385,14.548 C27.385,14.348 27.414,14.151 27.467,13.964 L25.101,11.592 L25.053,11.640 C24.429,12.265 23.610,12.578 22.791,12.578 C21.973,12.578 21.154,12.266 20.530,11.640 C19.926,11.036 19.594,10.231 19.594,9.375 C19.594,8.519 19.926,7.714 20.530,7.109 L26.688,0.938 C27.292,0.333 28.095,-0.000 28.949,-0.000 C29.803,-0.000 30.606,0.333 31.210,0.938 C31.814,1.543 32.147,2.348 32.147,3.204 C32.147,4.060 31.814,4.865 31.210,5.470 L31.162,5.518 L33.529,7.890 C34.242,7.686 35.043,7.864 35.603,8.426 L42.212,15.048 C42.772,15.610 42.950,16.412 42.746,17.127 L45.113,19.499 L45.162,19.450 C45.765,18.845 46.568,18.512 47.423,18.512 C48.277,18.512 49.080,18.845 49.684,19.450 C50.288,20.056 50.620,20.861 50.620,21.716 C50.620,22.572 50.288,23.377 49.684,23.982 L43.526,30.153 ZM26.160,22.969 C26.144,22.952 26.130,22.935 26.114,22.918 L2.380,46.703 C2.161,46.922 2.041,47.213 2.041,47.523 C2.041,47.832 2.161,48.123 2.380,48.342 C2.598,48.561 2.889,48.682 3.198,48.682 C3.507,48.682 3.797,48.561 4.015,48.342 L27.750,24.557 C27.733,24.542 27.715,24.528 27.699,24.511 L26.160,22.969 ZM27.603,19.883 C27.152,20.335 27.152,21.071 27.603,21.523 L29.143,23.065 C29.594,23.517 30.327,23.517 30.778,23.065 L32.894,20.945 L29.719,17.763 L27.603,19.883 ZM29.767,2.384 C29.549,2.165 29.258,2.045 28.949,2.045 C28.640,2.045 28.350,2.165 28.131,2.384 L21.974,8.555 C21.523,9.007 21.523,9.742 21.974,10.194 C22.425,10.646 23.158,10.646 23.609,10.194 L29.767,4.023 C30.218,3.572 30.218,2.836 29.767,2.384 ZM29.719,6.964 L26.544,10.146 L28.724,12.331 L31.899,9.149 L29.719,6.964 ZM40.769,16.494 L34.160,9.872 C34.147,9.859 34.129,9.852 34.112,9.852 C34.095,9.852 34.077,9.859 34.064,9.872 L29.445,14.500 C29.440,14.505 29.426,14.520 29.426,14.548 C29.426,14.577 29.440,14.592 29.445,14.596 L36.054,21.219 C36.059,21.224 36.074,21.239 36.102,21.239 C36.130,21.239 36.145,21.224 36.150,21.219 L40.769,16.591 C40.795,16.565 40.795,16.521 40.769,16.494 ZM41.490,18.761 L38.315,21.942 L40.495,24.127 L43.670,20.945 L41.490,18.761 ZM48.240,20.897 C48.015,20.671 47.719,20.558 47.423,20.558 C47.126,20.558 46.830,20.671 46.605,20.897 L40.447,27.068 C39.996,27.519 39.996,28.255 40.447,28.706 C40.898,29.159 41.632,29.159 42.083,28.706 L48.240,22.536 C48.459,22.317 48.579,22.026 48.579,21.716 C48.579,21.407 48.459,21.116 48.240,20.897 Z"/>
</svg>