<svg 
 xmlns="http://www.w3.org/2000/svg"
 xmlns:xlink="http://www.w3.org/1999/xlink"
 width="47px" height="44px">
<path fill-rule="evenodd"  fill="rgb(255, 194, 34)"
 d="M42.990,8.321 L31.570,8.321 L31.570,5.930 C32.246,5.695 32.803,5.156 33.053,4.443 C33.499,3.175 32.855,1.772 31.617,1.315 C29.286,0.455 26.479,-0.000 23.500,-0.000 C20.521,-0.000 17.714,0.455 15.383,1.315 C14.145,1.772 13.501,3.175 13.947,4.444 C14.203,5.172 14.764,5.699 15.430,5.930 L15.430,8.321 L4.010,8.321 C1.799,8.321 -0.000,10.165 -0.000,12.430 L-0.000,39.891 C-0.000,42.156 1.799,44.000 4.010,44.000 L42.990,44.000 C45.201,44.000 47.000,42.156 47.000,39.891 L47.000,12.430 C47.000,10.165 45.201,8.321 42.990,8.321 ZM15.899,2.783 C18.066,1.983 20.694,1.560 23.500,1.560 C26.305,1.560 28.934,1.983 31.101,2.783 C31.549,2.948 31.782,3.456 31.621,3.914 C31.498,4.265 31.171,4.500 30.809,4.500 C30.709,4.500 30.611,4.482 30.516,4.447 C28.563,3.725 26.071,3.328 23.500,3.328 C20.929,3.328 18.437,3.725 16.483,4.447 C16.036,4.612 15.540,4.374 15.379,3.915 C15.218,3.456 15.451,2.948 15.899,2.783 ZM16.952,5.931 C16.968,5.925 16.984,5.921 17.000,5.915 C18.792,5.253 21.100,4.888 23.500,4.888 C25.899,4.888 28.208,5.253 30.000,5.915 C30.016,5.921 30.032,5.925 30.047,5.930 L30.047,8.321 L16.952,8.321 L16.952,5.931 ZM1.523,12.430 C1.523,11.025 2.638,9.882 4.010,9.882 L42.990,9.882 C44.361,9.882 45.477,11.025 45.477,12.430 L45.477,19.919 C45.477,24.995 41.447,29.125 36.493,29.125 L26.697,29.125 L26.697,28.241 C26.697,26.893 25.627,25.796 24.312,25.796 L22.688,25.796 C21.372,25.796 20.302,26.893 20.302,28.241 L20.302,29.125 L10.506,29.125 C5.553,29.125 1.523,24.995 1.523,19.919 L1.523,12.430 ZM25.175,29.905 C25.175,30.393 24.788,30.789 24.312,30.789 L22.688,30.789 C22.212,30.789 21.825,30.393 21.825,29.905 L21.825,28.241 C21.825,27.753 22.212,27.357 22.688,27.357 L24.312,27.357 C24.788,27.357 25.175,27.753 25.175,28.241 L25.175,29.905 ZM21.825,32.184 C22.093,32.290 22.384,32.349 22.688,32.349 L24.312,32.349 C24.616,32.349 24.907,32.290 25.175,32.184 L25.175,33.234 C25.175,33.721 24.788,34.118 24.312,34.118 L22.688,34.118 C22.212,34.118 21.825,33.721 21.825,33.234 L21.825,32.184 ZM45.477,39.891 C45.477,41.296 44.361,42.439 42.990,42.439 L4.010,42.439 C2.638,42.439 1.523,41.296 1.523,39.891 L1.523,25.497 C3.367,28.605 6.704,30.685 10.506,30.685 L20.302,30.685 L20.302,33.234 C20.302,34.581 21.372,35.678 22.688,35.678 L24.312,35.678 C25.627,35.678 26.697,34.581 26.697,33.234 L26.697,30.685 L36.493,30.685 C40.296,30.685 43.633,28.605 45.477,25.497 L45.477,39.891 Z"/>
</svg>