<svg 
 xmlns="http://www.w3.org/2000/svg"
 xmlns:xlink="http://www.w3.org/1999/xlink"
 width="57px" height="54px">
<path fill-rule="evenodd"  fill="rgb(255, 194, 34)"
 d="M52.076,25.513 L52.076,24.467 L54.107,24.467 C54.617,24.467 55.030,24.054 55.030,23.544 L55.030,20.530 L56.077,20.530 C56.587,20.530 57.000,20.117 57.000,19.607 L57.000,16.654 C57.000,16.323 56.822,16.017 56.535,15.852 L28.958,0.102 C28.674,-0.060 28.326,-0.060 28.042,0.102 L0.465,15.852 C0.177,16.017 -0.000,16.322 -0.000,16.654 L-0.000,19.607 C-0.000,20.117 0.413,20.530 0.923,20.530 L1.970,20.530 L1.970,23.544 C1.970,24.054 2.383,24.467 2.893,24.467 L4.924,24.467 L4.924,25.513 C4.924,26.230 5.323,26.856 5.909,27.181 L5.909,44.278 L2.893,44.278 C2.383,44.278 1.970,44.692 1.970,45.202 L1.970,48.216 L0.923,48.216 C0.413,48.216 -0.000,48.629 -0.000,49.139 L-0.000,53.077 C-0.000,53.586 0.413,54.000 0.923,54.000 L56.077,54.000 C56.587,54.000 57.000,53.586 57.000,53.077 L57.000,49.139 C57.000,48.629 56.587,48.216 56.077,48.216 L55.030,48.216 L55.030,45.202 C55.030,44.692 54.617,44.278 54.107,44.278 L51.091,44.278 L51.091,27.181 C51.677,26.856 52.076,26.230 52.076,25.513 ZM50.229,25.513 C50.229,25.547 50.201,25.575 50.167,25.575 L46.228,25.575 C46.194,25.575 46.166,25.547 46.166,25.513 L46.166,24.467 L50.229,24.467 L50.229,25.513 ZM41.242,44.278 L41.242,27.181 C41.828,26.856 42.227,26.230 42.227,25.513 L42.227,24.467 L44.320,24.467 L44.320,25.513 C44.320,26.230 44.718,26.856 45.305,27.181 L45.305,44.278 L41.242,44.278 ZM37.302,44.278 L37.302,27.420 L39.395,27.420 L39.395,44.278 L37.302,44.278 ZM31.393,44.278 L31.393,27.181 C31.980,26.856 32.378,26.230 32.378,25.513 L32.378,24.467 L34.471,24.467 L34.471,25.513 C34.471,26.230 34.869,26.856 35.456,27.181 L35.456,44.278 L31.393,44.278 ZM27.453,44.278 L27.453,27.420 L29.546,27.420 L29.546,44.278 L27.453,44.278 ZM21.544,44.278 L21.544,27.181 C22.131,26.856 22.529,26.230 22.529,25.513 L22.529,24.467 L24.622,24.467 L24.622,25.513 C24.622,26.230 25.020,26.856 25.607,27.181 L25.607,44.278 L21.544,44.278 ZM17.605,44.278 L17.605,27.420 L19.698,27.420 L19.698,44.278 L17.605,44.278 ZM11.695,44.278 L11.695,27.181 C12.282,26.856 12.680,26.230 12.680,25.513 L12.680,24.467 L14.773,24.467 L14.773,25.513 C14.773,26.230 15.171,26.856 15.758,27.181 L15.758,44.278 L11.695,44.278 ZM20.682,24.467 L20.682,25.513 C20.682,25.547 20.655,25.575 20.621,25.575 L16.681,25.575 C16.647,25.575 16.620,25.547 16.620,25.513 L16.620,24.467 L20.682,24.467 ZM30.531,24.467 L30.531,25.513 C30.531,25.547 30.504,25.575 30.470,25.575 L26.530,25.575 C26.496,25.575 26.469,25.547 26.469,25.513 L26.469,24.467 L30.531,24.467 ZM40.380,24.467 L40.380,25.513 C40.380,25.547 40.352,25.575 40.319,25.575 L36.379,25.575 C36.345,25.575 36.317,25.547 36.317,25.513 L36.317,24.467 L40.380,24.467 ZM1.847,17.189 L28.500,1.966 L55.153,17.189 L55.153,18.684 L1.847,18.684 L1.847,17.189 ZM3.816,20.530 L53.184,20.530 L53.184,22.622 L3.816,22.622 L3.816,20.530 ZM10.834,24.467 L10.834,25.513 C10.834,25.547 10.806,25.575 10.772,25.575 L6.833,25.575 C6.799,25.575 6.771,25.547 6.771,25.513 L6.771,24.467 L10.834,24.467 ZM7.756,27.420 L9.849,27.420 L9.849,44.278 L7.756,44.278 L7.756,27.420 ZM55.153,52.154 L1.847,52.154 L1.847,50.062 L55.153,50.062 L55.153,52.154 ZM53.184,48.216 L3.816,48.216 L3.816,46.124 L53.184,46.124 L53.184,48.216 ZM47.151,44.278 L47.151,27.420 L49.244,27.420 L49.244,44.278 L47.151,44.278 Z"/>
</svg>